<?xml version="1.0" encoding="utf-8"?>
<!-- Generator: Adobe Illustrator 16.0.4, SVG Export Plug-In . SVG Version: 6.00 Build 0)  -->
<!DOCTYPE svg PUBLIC "-//W3C//DTD SVG 1.1//EN" "http://www.w3.org/Graphics/SVG/1.1/DTD/svg11.dtd">
<svg version="1.1" id="Layer_1" xmlns="http://www.w3.org/2000/svg" xmlns:xlink="http://www.w3.org/1999/xlink" x="0px" y="0px"
	 width="204.304px" height="636.191px" viewBox="0 0 204.304 636.191" enable-background="new 0 0 204.304 636.191"
	 xml:space="preserve">
<g>
	<path fill="#010101" d="M204.092,594.605c-0.793-5.018-3.916-11.771-8.538-18.514c-4.269-6.209-9.177-11.465-13.273-14.211
		c5.075-21.287,8.37-51.924,9.306-86.395c0.878-33.295-0.61-66.291-4.13-90.598c1.169-1.859,2.244-3.764,3.247-5.697
		c3.618-7,6.154-14.385,7.554-21.949c1.25-6.77,1.347-13.504,0.96-17.721c1.775-1.25,2.01-1.906,2.13-2.234
		c0.438-1.264-0.258-4.877-1.065-7.832c-0.917-3.32-2.669-8.584-5.931-14.85c-4.774-9.183-11.038-17.283-18.616-24.073
		c-1.342-1.204-2.741-2.373-4.169-3.489c-3.209-8.767-9.521-25.761-13.27-33.936c1.261-0.711,3.39-2.196,2.75-3.839
		c-2.726-6.907-8.336-15.078-13.892-21.31c-5.009-5.616-9.638-9.483-11.863-10.601c-0.086-1.003-0.246-2.191-0.441-3.6
		c-0.228-1.604-0.461-3.269-0.595-4.906c-0.109-1.373-0.168-2.963-0.215-4.653c-0.182-5.782-0.347-8.709-1.9-10.619
		c-2.013-2.482-10.586-6.716-17.393-8.28c0.199-1.542,0.452-2.818,0.738-3.725c2.851-2.926,4.564-6.277,5.862-9.279
		c1.865-0.382,3.486-1.43,4.59-3.006c1.284-1.823,1.909-4.298,1.408-7.482c11.866-1.836,20.154-6.273,21.2-11.414
		c0.507-2.485-0.31-4.574-3.672-6.768c-0.038-4.436-1.352-9.358-3.634-13.589c-2.76-5.1-6.847-9.058-11.88-11.517
		c1.302-0.673,2.474-1.512,3.457-2.498c2.363-2.378,3.491-5.381,3.259-8.699c-0.083-1.265-0.341-2.412-0.754-3.442
		c2.29-2.602,3.932-5.377,4.896-8.266c0.934-2.808,1.229-5.728,0.869-8.673c-0.864-7.152-5.3-12.699-8.475-15.096
		c2.103-3.564,2.463-6.451,1.595-8.709c-1.074-2.808-3.84-4.119-5.421-4.656c-0.564-3.151-3-11.978-8.762-21.076
		c-3.445-5.465-7.513-10.072-12.073-13.694c-5.29-4.204-11.271-7.086-17.774-8.568C86.382,6.43,80.991,2.772,77.089,1.249
		c-4.496-1.761-9.532-1.656-13.822,0.296c-3.916,1.801-6.927,4.298-8.977,7.458c-1.559-0.248-3.131-0.32-4.653-0.208
		c-5.233,0.391-9.777,2.888-13.127,7.223c-1.922,2.49-3.214,5.214-3.86,8.098c-0.561,2.521-0.631,5.173-0.191,7.894
		c0.176,1.107,0.418,2.165,0.714,3.151c-2.258,3.373-4.097,7.033-5.444,10.916c-1.631,4.727-2.535,9.497-2.762,14.594
		c-0.206,4.538,0.145,9.227,1.048,14.342c1.685,9.457,5.119,19.036,8.437,28.293c0.145,0.396,0.299,0.807,0.438,1.208
		c-2.583-2.444-6.413-5.874-7.012-5.405c-0.695,0.549-0.759,5.132-0.738,7.716c0.043,5.665,0.719,11.33,1.441,11.201
		c0.675-0.119-0.446-10.49,0.253-17.098c0.994,0.736,4.997,4.56,7.124,6.576c1.136,3.208,2.264,6.455,3.285,9.698
		c-0.932,0.258-1.846,0.659-2.706,1.201c-4.253,2.65-6.357,7.809-5.119,12.538c0.708,2.72,1.965,4.935,3.71,6.577
		c1.56,1.459,3.489,2.402,5.557,2.727c1.124,0.175,2.143,0.182,3.062,0.066c0.998,7.036,1.232,19.164,0.689,28.058
		c-6.571-0.248-7.91,4.133-9.634,12.792c-0.282,1.456-0.539,2.712-0.79,3.533c-1.282,4.082-3.968,6.188-4.179,13.05
		c-0.06,2.135,1.179,4.374,3.763,6.799c-1.106,2.535-3.217,8.862-3.833,11.513c-1.232,0.19-2.484,0.438-3.742,0.749
		c-8.049,1.967-14.4,7.276-18.894,15.771c-4.996,9.459-6.474,20.531-6.829,28.147c-0.417,8.654,0.469,17.297,2.241,22.014
		c0.7,1.875,4.952,3.394,6.966,3.64c1.154,4.6,2.732,10.479,4.58,17.067c-2.189,3.226-4.35,8.091-6.438,14.448
		c-1.807,5.506-3.493,11.942-4.862,18.641c-1.252,6.102-2.164,11.994-2.56,16.611c-0.673,7.674,0.347,8.621,0.73,8.973
		c0.914,0.857,2.599,1.678,5.036,2.467c2.156,9.781,7.304,20.156,15.309,30.846c7.864,10.5,16.517,18.699,22.484,23.809
		c1.66,19.547,2.491,37.852,2.491,54.76c0,12.555-0.457,24.336-1.377,35.283c-1.781,21.215-4.85,34.316-6.678,42.154
		c-1.51,6.404-1.565,8.537-1.221,9.338c0.662,1.514,1.729,2.986,3.184,4.414c-1.852,2.051-4.716,6.312-7.308,11.492
		c-4.593,9.205-6.356,18.719-5.753,19.807c3.198,5.754,12.632,16.4,23.612,22.051c1.148,0.592,5.908-1.447,9.069-3.041
		c0.684,1.055,1.446,2.156,2.286,3.289c3.982,5.338,7.896,8.811,11.649,10.312c7.411,2.986,15.462,5.062,23.913,6.166
		c7.216,0.936,14.523,1.17,21.728,0.674c12.078-0.828,22.624-3.787,24.533-6.877c2.192-3.533,1.33-12.357-2.125-21.949
		c-0.071-0.178-0.141-0.363-0.205-0.551c7.645,3.578,19.4,5.25,32.264,4.494c10.127-0.596,24.161-3.195,28.878-8.852
		C204.153,600.478,204.622,597.923,204.092,594.605 M63.875,2.863c3.927-1.79,8.557-1.891,12.69-0.265
		c3.498,1.374,8.297,4.598,11.856,12.173c-7.974-1.542-15.672-1.664-22.843-0.387c-2.012-1.8-4.426-3.261-7.017-4.24
		c-0.893-0.338-1.809-0.618-2.73-0.834C57.729,6.606,60.416,4.445,63.875,2.863 M55.001,10.618c3.151,0.664,6.217,2.091,8.757,4.125
		c-3.877,0.83-7.605,2.072-11.117,3.734c0.143-1.672,0.471-3.347,1.045-4.973C54.041,12.492,54.484,11.524,55.001,10.618
		 M33.885,31.784c-0.877-5.5,0.396-10.509,3.764-14.878c3.101-4,7.28-6.307,12.101-6.667c1.233-0.094,2.493-0.051,3.743,0.117
		c-0.45,0.849-0.842,1.736-1.168,2.669c-0.689,1.943-1.085,4.017-1.182,6.188c-0.623,0.32-1.222,0.645-1.823,0.988
		c-5.975,3.396-11.095,7.984-15.062,13.413C34.11,33.026,33.991,32.409,33.885,31.784"/>
	<path fill="#F4DE12" d="M49.991,135.049c-0.69-0.435-3.168,4.381-9.033,3.464c-3.806-0.6-6.662-3.518-7.838-8.02
		c-1.052-3.992,0.736-8.351,4.344-10.6c1.554-0.968,3.205-1.384,4.831-1.274c3.396,0.231,5.716,2.471,6.112,2.015
		c0.527-0.617-2.608-3.607-6.142-3.787c-0.427-0.019-0.858-0.004-1.286,0.034c-0.716-2.302-1.498-4.593-2.288-6.882
		c1.88,1.624,3.442,2.767,3.907,2.499c0.88-0.486,0.604-5.118,0.321-9.516c-0.204-3.294-0.449-9.674-0.241-11.503
		c1.044,1.173,2.638,3.235,4.428,5.666c5.188,7.038,10.557,15.416,11.21,14.993c0.772-0.485-4.665-8.536-9.914-15.681
		c-2.545-3.455-5.43-7.389-6.418-7.136c-1.447,0.382-0.728,10.318-0.506,13.753c0.129,2.069,0.36,6.229,0.281,7.585
		c-1.098-0.764-2.546-2.04-4.043-3.452c-0.538-1.507-1.075-3.01-1.606-4.493c-3.451-9.615-6.711-18.696-8.373-28.009
		c-0.881-4.985-1.213-9.547-1.018-13.952c0.218-4.923,1.096-9.54,2.67-14.103c1.142-3.307,2.662-6.453,4.505-9.377
		c1.813,4.615,4.447,7.35,4.869,7.028c0.672-0.52-2.143-3.522-3.876-8.54c3.929-5.72,9.144-10.53,15.3-14.033
		c0.307-0.182,0.618-0.353,0.938-0.521c0.021,0.751,0.078,1.509,0.171,2.278c0.582,4.951,2.963,10.141,3.766,9.735
		c0.794-0.396-2.479-5.361-2.498-12.756c10.5-5.204,22.957-6.529,36.228-3.832c6.637,1.358,12.713,4.198,18.07,8.452
		c4.401,3.501,8.337,7.959,11.688,13.259c6.07,9.606,8.318,18.956,8.591,20.93c0.042,0.346,0.292,0.632,0.625,0.729
		c1.136,0.319,3.873,1.336,4.804,3.759c0.716,1.879,0.239,4.271-1.422,7.123c-4.866-2.88-10.319-3.777-15.819-2.579
		c-5.907,1.289-11.494,4.938-14.75,9.612c-1.957-3.075-4.588-5.544-7.787-7.291c-5.64-3.07-12.841-3.697-19.247-1.689
		c-4.436,1.397-10.786,5.336-14.069,11.844c-2.646,5.229-2.875,11.125-0.672,17.529c2.55,7.405,8.189,10.901,12.482,12.529
		c5.061,1.907,10.971,2.235,15.813,0.861c6.03-1.709,11.007-5.637,14.048-11.073c3.728,1.875,12.662-0.26,13.059-0.355
		c1.193-0.289,11.771-2.702,17.071,1.184c1.875,1.371,2.869,3.331,3.051,5.988c0.192,2.798-0.76,5.338-2.756,7.337
		c-2.66,2.677-6.928,4.114-11.414,3.836l-3.512-0.248c-4.99-0.356-11.822-0.853-17.256-0.688l-1.447,0.029
		c-4.249,0.061-12.161,0.176-20.194,3.241c-9.897,3.785-16.946,10.872-20.938,21.076c-4.833,12.33-0.553,22.185,3.892,28.274
		c4.103,5.633,10.254,10.617,17.323,14.029c6.802,3.282,13.868,4.887,19.895,4.513c6.26-0.385,11.271-2.091,15.25-5.188
		c-0.605,3.358-0.792,8.57-0.42,13.607c0.345,4.611,1.437,12.96,4.99,17.811c-1.641,2.961-3.082,5.521-3.967,6.852
		c-2.262-2.13-7.689-10.07-11.395-15.504c-3.543-5.176-5.582-8.14-6.417-8.896c-0.096-0.08-5.548-2.043-6.795-2.473
		c-8.231-2.879-20.676-7.225-30.879-11.747c-6.283-2.783-10.351-5.037-12.961-6.842c1.467-7.76,1.514-26.939,0.135-36.542
		C49.145,138.698,50.596,135.436,49.991,135.049"/>
	<path fill="#010101" d="M42.641,124.633c-3.354-1.358-5.713,1.067-5.498,1.425c0.278,0.481,2.515-0.855,4.613-0.208
		c-0.86,0.738-1.543,1.837-1.803,3.021c-0.726,3.307,2.249,5.422,2.674,4.984c0.732-0.759-1.861-1.938-1.261-4.68
		c0.267-1.218,1.096-2.162,1.834-2.563c1.961,1.518,2.627,4.975,3.447,4.746C47.551,131.11,46.459,126.178,42.641,124.633"/>
	<path fill="#78C0EA" d="M131.758,557.052c0.599-4.086,1.232-8.637,1.872-13.551c3.805,1.281,12.7,2.189,22.184,2.213
		c7.062,0.012,19.844-0.455,28.506-3.645c-1.128,7.174-2.393,13.742-3.797,19.604c-2.779,1.23-10.671,3.293-20.191,4.217
		c-8.218,0.795-19.924,0.965-29.507-2.621C131.118,561.417,131.43,559.351,131.758,557.052"/>
	<path fill="#78C0EA" d="M190.077,456.644c0,6.217-0.081,12.5-0.258,18.797c-0.64,24.209-2.464,46.508-5.252,64.984
		c-6.192,2.477-16.626,3.871-28.754,3.84c-10.733-0.021-19.028-1.131-21.996-2.227c1.278-9.811,2.63-20.959,3.933-32.639
		c2.161-19.275,7.411-65.74,7.229-88.186c11.125-5.301,20.796-11.836,28.731-19.443c4.692-4.508,8.81-9.406,12.299-14.625
		C188.659,406.47,190.077,430.974,190.077,456.644"/>
	<path fill="#FFFFFF" d="M134.565,221.369c0.478-0.403,0.713-1.037,0.778-1.956c2.3,1.482,6.394,5.104,10.495,9.712
		c4.006,4.49,9.358,11.348,12.878,19.188c-3.524-0.106-10.733,1.437-13.689,2.444c-2.827-6.003-5.74-11.201-8.266-15.332
		c-3.084-5.071-6.202-9.568-9.015-13.252C130.788,222.825,133.377,222.352,134.565,221.369"/>
	<path fill="#FFFFFF" d="M131.939,198.13c0.21,1.743,0.276,3.973,0.346,6.121c0.056,1.714,0.109,3.323,0.217,4.736
		c0.134,1.695,0.387,3.462,0.607,5.023c0.263,1.862,0.969,5.2,0.319,6.012c-0.964,0.802-4.116,1.131-7.578-0.268
		c-2.071-2.569-3.91-4.607-5.368-6.012c0.194-0.357,0.394-0.726,0.599-1.097c2.297-4.165,8.008-14.861,10.261-17.134
		C131.502,195.838,131.753,196.555,131.939,198.13"/>
	<path fill="#FFFFFF" d="M130.11,194.265c-2.397,2.38-7.587,12.119-10.566,17.54c-0.292,0.516-0.578,1.041-0.857,1.552
		c-2.194-3.442-3.667-9.129-4.189-16.223c-0.263-3.677-0.2-7.193,0.055-10.067C118.87,188.102,126.486,190.861,130.11,194.265"/>
	<path fill="#D2B16B" d="M139.693,130.872c2.239,4.129,3.481,8.95,3.423,13.226c-0.009,0.309,0.158,0.601,0.426,0.764
		c1.762,1.062,3.763,2.822,3.275,5.186c-1.013,4.967-10.239,8.69-20.632,10.159c-7.738,1.09-19.787,0.79-31.454-0.791
		c-12.383-1.674-22.558-4.505-28.036-7.78c0.967-1.669,2.821-2.55,2.665-2.935c-0.183-0.443-3.564,0.622-4.426,3.323
		c-0.93,2.941,0.786,5.742,1.211,5.592c0.151-0.056-0.305-2.373-0.023-4.288c5.757,3.318,16.013,6.16,28.378,7.83
		c11.397,1.543,23.196,1.877,31.093,0.899c0.396,2.487,0.024,4.631-1.093,6.23c-0.911,1.306-2.307,2.152-3.898,2.363
		c-0.307,0.04-0.571,0.243-0.69,0.525c-1.389,3.287-3.272,7.062-6.668,10.128c-3.862,3.484-8.911,5.383-15.435,5.789
		c-5.734,0.355-12.487-1.187-19.021-4.343c-6.816-3.293-12.734-8.079-16.672-13.479c-4.182-5.74-8.207-15.013-3.676-26.598
		c8.911-22.755,31.152-23.084,39.532-23.208l1.475-0.026c5.333-0.165,12.123,0.326,17.073,0.685l3.53,0.246
		c2.53,0.155,5.001-0.189,7.225-0.958C132.354,121.702,136.981,125.848,139.693,130.872"/>
	<path fill="#FFFFFF" d="M139.654,87.112c0.33,2.732,0.059,5.446-0.808,8.046c-0.849,2.544-2.271,5.001-4.234,7.329
		c-0.596-0.947-1.362-1.759-2.291-2.444c-5.83-4.271-16.454-1.979-18.529-1.473c-3.712,0.902-9.669,1.6-11.848,0.496
		c2.2-4.717,2.798-10.017,1.58-14.422c-0.53-1.92-1.249-3.708-2.135-5.351c2.399-3.72,7.491-8.108,14.243-9.574
		c5.41-1.179,10.771-0.19,15.5,2.856C134.073,74.467,138.781,79.91,139.654,87.112"/>
	<path fill="#FFFFFF" d="M102.13,85.026c1.218,4.429,0.454,9.858-2.046,14.528c-2.831,5.295-7.585,9.11-13.386,10.761
		c-4.548,1.29-10.118,0.975-14.9-0.837c-4.001-1.512-9.265-4.758-11.635-11.637c-2.055-6.022-1.86-11.543,0.598-16.413
		c3.085-6.102,9.048-9.798,13.218-11.111c6.047-1.896,12.821-1.306,18.12,1.576C97.035,74.586,100.504,79.126,102.13,85.026"/>
	<path fill="#FFFFFF" d="M44.319,170.135c-0.152,1.965-0.344,3.715-0.572,5.157c-2.301-1.853-2.871-3.124-2.871-3.926
		C40.876,170.507,41.446,170.135,44.319,170.135"/>
	<path fill="#FFFFFF" d="M31.586,197.79c0.207-6.822,2.812-8.466,4.097-12.576c0.694-2.216,1.716-9.951,3.589-12.813
		c1,3.436,6.903,7.455,18.304,12.51c10.264,4.553,22.754,8.907,31.011,11.798c2.523,0.882,4.706,1.646,6.303,2.229
		c0.008,0.005,0.013,0.01,0.013,0.018c-3.295,2.375-5.969,9.303-8.555,16.019c-1.09,2.843-2.135,5.531-3.121,7.59
		c-1.284,2.681-2.056,3.347-2.419,3.502c-0.582,0.114-3.938-0.615-12.58-4.204c-6.164-2.564-12.457-5.538-14.952-7.076
		c-1.056-0.652-2.528-1.447-4.231-2.368C42.46,208.863,31.438,202.919,31.586,197.79"/>
	<path fill="#FFFFFF" d="M34.986,205.755c0.457,0.366,0.931,0.745,1.444,1.122c3.67,2.707,8.167,5.138,11.782,7.08
		c1.68,0.911,3.129,1.696,4.143,2.324c2.662,1.638,9.023,4.639,15.477,7.308c11.749,4.865,13.152,4.304,13.613,4.116
		c2.112-0.846,3.858-5.152,6.542-12.1c2.298-5.974,5.128-13.317,8.004-15.279c1.201,1.621,3.035,4.302,4.936,7.088
		c6.172,9.032,10.687,15.504,12.624,16.53c0.368,0.203,0.836,0.107,1.097-0.22c0.876-1.081,2.714-4.342,4.949-8.382
		c3.056,3.032,9.018,10.075,15.666,20.99c5.485,9.003,12.835,23.069,17.131,39.502c-6.812-2.815-12.063-3.883-12.222-3.326
		c-0.354,1.283,8.254,2.541,19.562,8.803c5.119,2.827,9.875,6.171,14.229,9.994c7.371,6.478,13.517,14.221,18.253,23.023
		c3.425,6.358,5.282,11.743,6.246,15.149c1.241,4.391,1.361,6.799,1.223,7.223c-0.114,0.318-1.241,2.154-12.521,6.975
		c-7.566,3.229-17.675,6.93-28.447,10.406c-11.633,3.742-23.11,6.938-33.209,9.248c-11.198,2.555-20.084,3.891-26.425,3.973
		c-1.745-6.273-4.198-14.93-6.89-24.43c-6.619-23.408-15.087-53.346-19.465-70.007c2.329-0.903,7.052-3.789,7.052-7.11
		c0-1.986-1.538-9.272-5.238-17.902c-3.184-7.442-8.843-17.756-17.666-24.679c-7.492-5.881-15.962-8.347-25.247-7.363
		C32.309,213.198,33.981,208.214,34.986,205.755"/>
	<path fill="#F4DE12" d="M47.504,394.722c-4.985-8.445-13.422-31.305-23.155-62.75c-8.116-26.23-14.288-49.328-15.053-54.714
		c6.243-4.528,17.158-9.099,29.554-12.094c8.412-2.035,16.428-3.065,23.189-2.98c2.299,0.024,4.43,0.187,6.361,0.476
		c2.027,9.714,13.593,50.596,22.11,80.688c3.893,13.766,7.289,25.773,8.773,31.27c-2.431,0.129-5.82,0.777-10.142,1.947
		c-6.23,1.693-14.028,4.389-21.385,7.418c-6.019,2.477-11.338,4.895-15.255,7.215C50.205,392.554,48.607,393.73,47.504,394.722"/>
	<path fill="#FFFFFF" d="M70.264,262.986c3.23,0.663,5.843,1.724,7.721,3.155c-0.403,1.984-3.669,4.174-5.703,5.005
		C71.377,267.666,70.682,264.875,70.264,262.986"/>
	<path fill="#FFFFFF" d="M2.038,260.809c0.36-7.439,1.79-18.234,6.638-27.417c4.244-8.03,10.222-13.035,17.76-14.884
		c10.946-2.686,20.826-0.648,29.354,6.041c14.362,11.273,20.794,32.406,22.017,39.352c-3.642-2.223-8.918-3.388-15.744-3.472
		c-6.902-0.081-15.078,0.963-23.622,3.025c-13.82,3.337-29.857,9.85-34.85,16.817C2.296,275.529,1.696,268.195,2.038,260.809"/>
	<path fill="#FFFFFF" d="M4.344,282.387c0.648-1.259,1.792-2.569,3.379-3.893c0.254,1.447,0.713,3.513,1.332,6.066
		C7.275,284.234,5.023,283.157,4.344,282.387"/>
	<path fill="#FFFFFF" d="M1.749,357.585c0-1.117,0.062-2.611,0.249-4.604c0.418-4.574,1.328-10.4,2.562-16.387
		c2.776-13.398,6.521-24.729,10.169-30.884c2.349,8.295,5.099,17.568,7.949,26.777c2.454,7.938,6.914,21.932,11.637,35.148
		c-3.505-0.277-9.9-0.998-16.154-2.068c-8.617-1.475-14.302-3.15-16.003-4.736C2.108,360.785,1.749,360.244,1.749,357.585"/>
	<path fill="#78C0EA" d="M46.646,509.423c2.181-25.859,1.787-56.375-1.147-90.693c-0.023-0.229-0.126-0.445-0.3-0.596
		c-5.914-5.023-14.604-13.23-22.493-23.76c-7.589-10.137-12.56-19.953-14.774-29.207c2.644,0.74,5.963,1.451,9.936,2.135
		c6.794,1.164,13.771,1.914,17.096,2.139c3.961,10.986,8.054,21.205,11.243,26.623c-1.209,1.477-1.083,2.289-0.873,2.357
		c0.382,0.123,0.935-2.26,7.987-6.027c3.883-2.068,8.992-4.613,14.99-7.082c7.306-2.998,15.037-5.678,21.211-7.346
		c9.379-2.543,12.02-1.961,12.718-1.598c1.495,0.783,3.123,4.379,4.255,9.396c1.874,8.281,1.142,14.479,1.902,14.545
		c0.871,0.082,1.228-7.26-0.493-14.865c-0.738-3.279-2.376-8.99-4.995-10.355c-0.446-0.234-1.046-0.383-1.805-0.453
		c-0.372-1.391-0.896-3.291-1.528-5.586c12.415-0.287,34.556-5.211,59.677-13.299c10.828-3.486,20.99-7.205,28.609-10.461
		c4.675-2.006,7.707-3.535,9.679-4.699c0.282,3.744,0.277,9.354-1.007,16.33c-1.366,7.398-3.858,14.621-7.391,21.459
		c-4.174,8.092-9.785,15.535-16.646,22.121c-7.931,7.598-17.608,14.109-28.772,19.371c-0.309,0.143-0.503,0.457-0.503,0.803
		c0.23,15.795-3.737,57.498-7.199,88.416c-1.788,16-3.653,31.023-5.321,42.934c-7.504,2.029-16.347,2.736-26.269,2.111
		c-8.553-0.551-17.67-2.053-27.092-4.484c-16.699-4.307-30.611-10.686-34.002-14.162C44.549,528.576,45.756,520.005,46.646,509.423"
		/>
	<path fill="#78C0EA" d="M38.614,560.066c-0.398-0.916,0.312-3.988,1.304-8.242c0.863-3.646,1.979-8.436,3.12-14.652
		c4.517,3.762,17.777,9.711,33.943,13.879c9.507,2.455,18.71,3.973,27.362,4.521c9.816,0.633,18.604-0.039,26.14-1.988
		c-0.144,1.059-0.292,2.09-0.442,3.088c-2.81,19.33-3.982,22.033-4.275,22.398c-2.311,2.744-17.201,3.777-38.133,0.762
		c-11.684-1.691-22.757-4.336-31.176-7.48C46.699,568.708,40.535,564.458,38.614,560.066"/>
	<path fill="#010101" d="M52.693,616.58c1.168-2.297,2.717-5.105,3.822-6.586c0.512,0.945,1.302,2.359,2.33,4.016
		C57.214,614.816,54.578,616.025,52.693,616.58"/>
	<path fill="#11412F" d="M142.423,628.138c-1.206,1.943-9.931,5.139-23.166,6.051c-7.082,0.486-14.276,0.262-21.377-0.664
		c-8.308-1.1-16.212-3.129-23.489-6.051c-5.002-2.014-9.611-7.691-12.757-12.395c-2.443-3.664-4.177-7.277-4.747-7.488
		c-1.303-0.471-4.919,6.527-6.144,8.963c-10.159-5.496-18.832-15.236-21.956-20.697c0.688-11.547,9.143-25.527,12.7-29.5
		c3.295,2.74,8.09,5.295,14.362,7.635c8.531,3.182,19.732,5.877,31.53,7.582c13.096,1.887,28.019,2.65,35.512,0.736
		c6.875,5.4,13.438,14.869,17.241,25.4C143.322,616.541,144.292,625.13,142.423,628.138"/>
	<path fill="#11412F" d="M201.369,601.08c-4.134,4.961-17.595,7.631-27.626,8.217c-11.679,0.693-25.116-0.701-33.128-5.199
		c-1.633-3.953-3.615-7.75-5.816-11.148c-2.983-4.574-6.312-8.371-9.917-11.287c0.988-0.402,1.743-0.896,2.221-1.463
		c0.364-0.43,1.246-1.484,3.444-15.172c9.829,3.594,21.652,3.408,29.95,2.617c9.756-0.953,17.7-3.043,20.723-4.365
		c3.921,2.605,8.7,7.717,12.878,13.807c4.488,6.529,7.502,13.021,8.251,17.797C202.793,597.675,202.463,599.761,201.369,601.08"/>
	<path fill="#010101" d="M99.893,428.08c7.428-6.072,8.151-16.395,7.433-16.502c-0.604-0.086-1.242,9.564-8.344,15.381
		c-5.67,4.641-14.027,6.234-13.843,6.914C85.386,434.73,94.733,432.306,99.893,428.08"/>
	<path fill="#010101" d="M73.854,90.046c-2.007,0-3.632,1.628-3.632,3.631c0,2.008,1.625,3.638,3.632,3.638
		c2.004,0,3.635-1.63,3.635-3.638C77.488,91.675,75.857,90.046,73.854,90.046"/>
	<path fill="#010101" d="M124.044,86.866c-1.819,0-3.287,1.473-3.287,3.294c0,1.82,1.468,3.294,3.287,3.294
		c1.818,0,3.302-1.474,3.302-3.294C127.346,88.339,125.862,86.866,124.044,86.866"/>
	<path fill="#EF9C20" d="M9.296,277.254c0.763,5.391,6.937,28.486,15.054,54.718c9.733,31.447,18.169,54.299,23.154,62.754
		c1.104-0.994,2.701-2.176,4.999-3.531c3.917-2.32,9.237-4.74,15.255-7.215c0.189-0.08,0.383-0.158,0.58-0.234
		c-11.684-29.766-33.414-101.828-37.72-116.3C21.71,270.243,14.11,273.763,9.296,277.254"/>
	<path fill="#B5D9D9" d="M51.252,190.681c0.291-5.188,1.203-7.115,1.861-7.835c-8.498-4.104-12.98-7.492-13.84-10.447
		c-1.873,2.854-2.895,10.6-3.59,12.815c-1.285,4.11-3.89,5.754-4.097,12.579c-0.128,4.467,8.23,9.562,14.736,13.147
		C45.749,204.27,50.813,198.487,51.252,190.681"/>
	<path fill="#B5D9D9" d="M39.256,217.572c-4.087-0.468-8.363-0.158-12.822,0.936c-7.535,1.849-13.513,6.854-17.758,14.889
		c-4.847,9.178-6.276,19.973-6.639,27.412c-0.339,7.39,0.259,14.725,1.554,19.463c4.017-5.592,15.147-10.896,26.53-14.492
		C24.564,234.318,34.001,221.649,39.256,217.572"/>
	<path fill="#B5D9D9" d="M52.037,216.087c-0.992-0.596-2.314-1.311-3.824-2.125c-3.617-1.947-8.112-4.376-11.782-7.085
		c-0.515-0.374-0.988-0.753-1.445-1.122c-1.005,2.459-2.67,7.448-3.357,10.056c6.495-0.688,12.595,0.315,18.233,2.994
		C50.628,217.732,51.473,216.632,52.037,216.087"/>
	<path fill="#B5D9D9" d="M96.197,204.738c3.13,0.853,7.604,8.762,12.355,13.575c-2.097-2.837-4.666-6.571-7.631-10.901
		c-1.896-2.784-3.728-5.465-4.931-7.089c-2.279,1.559-4.527,6.503-6.512,11.468C92.271,207.851,95.564,204.561,96.197,204.738"/>
	<path fill="#92572A" d="M61.121,150.716c1.166-12.711,7.607-21.277,12.537-25.933c-6.039,3.357-11.681,8.854-15.22,17.888
		c-4.534,11.587-0.506,20.865,3.675,26.6c3.937,5.4,9.862,10.188,16.676,13.482c6.532,3.155,13.287,4.692,19.02,4.337
		c1.356-0.083,2.65-0.229,3.887-0.449C85.268,185.42,59.25,171.146,61.121,150.716"/>
	<path fill="#E7D8A7" d="M146.819,150.045c0.485-2.359-1.516-4.124-3.277-5.186c-0.268-0.16-0.435-0.455-0.426-0.761
		c0.061-4.273-1.182-9.092-3.423-13.226c-2.717-5.024-7.337-9.173-12.419-11.46c-0.998,0.343-2.042,0.601-3.118,0.769
		c3.529,2.077,13.665,9.516,13.14,26.228c0,0,6.031,4.918,2.65,10.066C143.719,154.727,146.311,152.544,146.819,150.045"/>
	<path fill="#E7D8A7" d="M115.666,168.383c-4.335,0.233-1.6,2.516-0.554,2.635c0.758,0.086,0.603,6.036-2.609,10.921
		c0.251-0.204,0.489-0.416,0.74-0.635c3.393-3.068,5.279-6.841,6.668-10.128c0.122-0.287,0.387-0.486,0.692-0.525
		c1.59-0.211,2.98-1.055,3.896-2.368c1.117-1.59,1.489-3.733,1.098-6.226c-1.746,0.214-3.686,0.367-5.772,0.457
		C119.597,164.716,118.56,168.22,115.666,168.383"/>
	<path fill="#EF9C20" d="M78.024,184.33c-7.07-3.409-13.223-8.394-17.323-14.029c-4.441-6.092-8.723-15.941-3.893-28.271
		c3.993-10.204,11.041-17.293,20.942-21.073c0.994-0.379,1.982-0.713,2.978-1.009c-14.947,2.976-23.44,13.823-24.237,13.865
		c-0.705,0.039-1.499-13.753-5.391-31.088c-1.284-1.832-2.64-3.751-3.994-5.582c-1.79-2.431-3.384-4.49-4.428-5.664
		c-0.208,1.83,0.039,8.207,0.244,11.508c0.278,4.388,0.556,9.02-0.325,9.513c-0.465,0.265-2.023-0.878-3.906-2.499
		c0.789,2.277,1.572,4.578,2.291,6.88c0.425-0.043,0.856-0.053,1.283-0.034c3.254,0.16,6.173,2.718,6.195,3.601
		c1.878,2.732-0.507,3.885-2.066,2.667c-1.119-0.861-4.569-2.874-7.727-1.428c-3.091,1.416-4.996,4.782-5.837,6.959
		c0.031,0.626,0.124,1.237,0.288,1.848c1.171,4.499,4.033,7.42,7.838,8.018c5.865,0.917,8.344-3.899,9.034-3.464
		c0.604,0.387-0.847,3.651-4.533,4.875c1.382,9.605,1.337,28.785-0.132,36.547c2.35,1.621,5.883,3.612,11.147,6.021
		c0.159-6.705-0.363-12.051,0.451-11.138c10.263,11.534,22.059,15.479,31.216,16.578C84.811,187.166,81.387,185.955,78.024,184.33
		 M46.646,131.358c-0.819,0.227-1.483-3.228-3.445-4.746c-0.739,0.401-1.569,1.35-1.836,2.563c-0.598,2.742,1.992,3.923,1.26,4.68
		c-0.42,0.435-3.396-1.673-2.669-4.984c0.257-1.184,0.938-2.288,1.799-3.021c-2.095-0.647-4.332,0.69-4.618,0.211
		c-0.21-0.36,2.148-2.786,5.502-1.425C46.466,126.178,47.551,131.11,46.646,131.358"/>
	<path fill="#EF9C20" d="M34.889,35.761c1.733,5.018,4.545,8.018,3.875,8.542c-0.421,0.319-3.056-2.418-4.869-7.028
		c-1.843,2.922-3.363,6.063-4.505,9.373c-1.576,4.565-2.451,9.18-2.669,14.105c-0.195,4.403,0.136,8.962,1.017,13.952
		c1.662,9.316,4.922,18.397,8.374,28.009c0.53,1.485,1.068,2.984,1.604,4.498c1.5,1.403,2.944,2.686,4.046,3.447
		c0.078-1.356-0.152-5.523-0.284-7.583c-0.222-3.438-0.938-13.379,0.506-13.753c0.991-0.255,3.872,3.676,6.418,7.133
		c0.569,0.775,1.144,1.561,1.711,2.351c-1.124-4.321-2.67-10.084-3.679-13.138c-7.195-21.757-7.407-52.654,4.694-64.465
		c-0.321,0.17-0.633,0.341-0.939,0.523C44.031,25.229,38.814,30.043,34.889,35.761"/>
	<path fill="#E9E74A" d="M131.571,114.783c1.991-2.003,2.948-4.543,2.756-7.337c-0.182-2.66-1.176-4.617-3.051-5.988
		c-5.301-3.888-15.878-1.473-17.071-1.189c-0.396,0.1-9.331,2.235-13.059,0.36c-0.291,0.523-0.602,1.025-0.924,1.514
		c2.017,0.681,7.881,2.044,17.923,0.717c4.488-0.598,10.532,0.419,11.917,4.911c1.408,4.564-3.52,9.205-9.182,10.875
		C125.106,118.734,129.06,117.318,131.571,114.783"/>
	<path fill="#E9E74A" d="M115.218,219.549c0.735-1.265,1.601-2.806,2.521-4.474c-3.554-4.851-4.648-13.199-4.99-17.815
		c-0.372-5.037-0.186-10.242,0.42-13.604c-0.97,0.756-2.005,1.427-3.104,2.022C109.644,190.112,108.733,208.939,115.218,219.549"/>
	<path fill="#E9E74A" d="M120.093,56.819c0,0-5.377,0.291-5.243,2.726c0.097,1.714,4.231,1.793,7.619,2.541
		c3.165,0.692,4.884,4.266,4.196,6.756c1.536,0.506,3.036,1.186,4.482,2.044c1.661-2.851,2.138-5.244,1.417-7.125
		c-0.926-2.422-3.663-3.44-4.799-3.757c-0.333-0.099-0.585-0.386-0.63-0.731c-0.268-1.979-2.516-11.321-8.586-20.928
		c-3.351-5.3-7.284-9.76-11.692-13.259c-5.353-4.254-11.431-7.096-18.068-8.452c-4.207-0.854-8.333-1.308-12.34-1.355
		C92.003,17.474,112.868,27.974,120.093,56.819"/>
	<path fill="#6393CD" d="M99.893,428.08c-5.159,4.227-14.507,6.65-14.754,5.793c-0.185-0.68,8.173-2.275,13.843-6.914
		c0.15-0.119,0.303-0.252,0.446-0.375c-9.536,4.287-21.021-0.877-25.449-7.355c-8.274-12.109-9.168-27.975-9.258-32.383
		c-4.456,1.965-8.319,3.91-11.399,5.549c-7.056,3.768-7.606,6.145-7.987,6.025c-0.209-0.062-0.337-0.885,0.874-2.359
		c-3.193-5.414-7.284-15.633-11.247-26.617c-3.322-0.223-10.304-0.98-17.096-2.141c-3.973-0.68-7.29-1.395-9.934-2.125
		c2.216,9.246,7.184,19.064,14.774,29.197c7.886,10.531,16.58,18.732,22.493,23.762c0.171,0.146,0.277,0.365,0.302,0.594
		c2.934,34.322,3.324,64.834,1.141,90.693c-0.887,10.59-2.095,19.152-3.297,26.074c3.384,3.469,17.293,9.842,33.993,14.156
		c0.41,0.102,0.812,0.201,1.213,0.307c16.858-97.967,6.474-111.158,11.423-113.982c4.911-1.795,8.286-5.238,10.495-8.389
		C100.284,427.75,100.094,427.917,99.893,428.08"/>
	<path fill="#A6DAF6" d="M136.02,509.091c3.464-30.92,7.43-72.621,7.198-88.416c0-0.348,0.195-0.662,0.506-0.803
		c11.169-5.266,20.842-11.777,28.772-19.371c6.866-6.584,12.473-14.027,16.646-22.117c3.537-6.846,6.024-14.068,7.391-21.463
		c1.284-6.979,1.284-12.59,1.007-16.33c-1.542,0.912-3.729,2.049-6.852,3.451c-1.93,22.469-11.636,56.572-47.562,72.906
		c0,0-0.323-6.072-2.218-5.617c-1.643,0.395-5.153,74.123-15.491,141.863c1.824-0.318,3.591-0.711,5.281-1.17
		C132.371,540.113,134.235,525.091,136.02,509.091"/>
	<path fill="#010101" d="M130.55,565.033c-2.198,13.686-3.083,14.734-3.447,15.166c-0.475,0.57-1.232,1.061-2.216,1.467
		c2.177,1.764,4.265,3.863,6.241,6.256c0.095-4.219,0.78-15.293,2.425-21.914C132.533,565.714,131.526,565.4,130.55,565.033"/>
	<path fill="#6393CD" d="M76.983,551.05c-16.166-4.172-29.433-10.111-33.945-13.879c-1.142,6.217-2.258,11.01-3.119,14.652
		c-0.99,4.258-1.706,7.33-1.303,8.246c1.921,4.389,8.082,8.641,17.841,12.285c4.955,1.842,10.834,3.525,17.207,4.939
		c2.002-10.648,3.719-21.059,4.53-25.938C77.793,551.251,77.383,551.158,76.983,551.05"/>
	<path fill="#A6DAF6" d="M125.768,579.072c0.291-0.367,1.464-3.07,4.271-22.4c0.152-1,0.301-2.039,0.449-3.09
		c-1.711,0.439-3.479,0.812-5.31,1.127c-1.271,7.912-3.152,18.607-4.613,26.293C123.292,580.55,125.082,579.884,125.768,579.072"/>
	<path fill="#010101" d="M71.3,578.552c-5.693-1.328-10.951-2.875-15.448-4.557c-6.274-2.344-11.071-4.898-14.363-7.635
		c-3.557,3.963-12.013,17.945-12.703,29.496c3.127,5.467,11.799,15.201,21.958,20.693c1.225-2.436,4.838-9.43,6.142-8.959
		c0.577,0.211,2.306,3.824,4.749,7.482c1.4,2.092,3.084,4.385,4.967,6.455C60.61,605.992,67.711,586.355,71.3,578.552"/>
	<path fill="#6D968F" d="M142.423,628.138c1.869-3.008,0.899-11.598-2.29-20.428c-3.803-10.531-10.366-20-17.241-25.4
		c-1.075,0.271-2.283,0.492-3.61,0.656c5.781,5.445,18.956,22.469,19.706,47.334C140.845,629.529,142.024,628.759,142.423,628.138"
		/>
	<path fill="#6393CD" d="M144.979,421.214c0.183,22.449-5.066,68.91-7.229,88.191c-1.308,11.676-2.654,22.828-3.93,32.631
		c0.802,0.301,1.991,0.602,3.515,0.869c3.71-28.748,9.63-81.428,10.901-123.301C147.169,420.144,146.082,420.689,144.979,421.214"/>
	<path fill="#6393CD" d="M133.627,543.501c-0.637,4.916-1.272,9.465-1.874,13.551c-0.32,2.299-0.63,4.365-0.927,6.217
		c1.104,0.412,2.235,0.77,3.382,1.09c0.477-3.031,1.731-10.732,2.969-20.004C135.735,544.095,134.541,543.808,133.627,543.501"/>
	<path fill="#E9E74A" d="M87.018,62.357c7.998,1.619,9.114,5.82,10.748,3.667c1.017-1.337-1.077-7.174-10.089-8.781
		c-5.055-0.897-10.535,1.06-10.972,3.14C76.229,62.715,79.443,60.834,87.018,62.357"/>
	<path fill="#B5D9D9" d="M44.319,170.135c-0.152,1.965-0.344,3.715-0.572,5.157c-2.301-1.853-2.871-3.124-2.871-3.926
		C40.876,170.507,41.446,170.135,44.319,170.135"/>
	<path fill="#B5D9D9" d="M131.939,198.13c0.21,1.743,0.276,3.973,0.346,6.121c0.056,1.714,0.109,3.323,0.217,4.736
		c0.134,1.695,0.387,3.462,0.607,5.023c0.263,1.862,0.969,5.2,0.319,6.012c-0.964,0.802-4.116,1.131-7.578-0.268
		c-2.071-2.569-3.91-4.607-5.368-6.012c0.194-0.357,0.394-0.726,0.599-1.097c2.297-4.165,8.008-14.861,10.261-17.134
		C131.502,195.838,131.753,196.555,131.939,198.13"/>
	<path fill="#B5D9D9" d="M70.264,262.986c3.23,0.663,5.843,1.724,7.721,3.155c-0.403,1.984-3.669,4.174-5.703,5.005
		C71.377,267.666,70.682,264.875,70.264,262.986"/>
	<path fill="#B5D9D9" d="M4.344,282.387c0.648-1.259,1.792-2.569,3.379-3.893c0.254,1.447,0.713,3.513,1.332,6.066
		C7.275,284.234,5.023,283.154,4.344,282.387"/>
	<path fill="#B5D9D9" d="M1.749,357.585c0-1.117,0.062-2.611,0.249-4.604c0.418-4.574,1.328-10.4,2.562-16.387
		c2.776-13.398,6.521-24.729,10.169-30.884c2.349,8.295,5.099,17.568,7.949,26.777c2.454,7.938,6.914,21.932,11.637,35.148
		c-3.505-0.277-9.9-0.998-16.154-2.068c-8.617-1.475-14.302-3.15-16.003-4.736C2.108,360.785,1.749,360.244,1.749,357.585"/>
	<path fill="#010101" d="M52.693,616.58c1.168-2.297,2.717-5.105,3.822-6.586c0.512,0.945,1.302,2.359,2.33,4.016
		C57.214,614.816,54.578,616.025,52.693,616.58"/>
	<path fill="#B5D9D9" d="M74.515,108.034c-3.998-1.517-9.259-4.765-11.624-11.642c-2.07-6.02-1.873-11.541,0.588-16.411
		c2.003-3.948,5.202-6.887,8.338-8.826c-3.878,1.744-8.467,5.164-11.056,10.277c-2.457,4.865-2.657,10.388-0.598,16.408
		c2.371,6.879,7.634,10.13,11.636,11.645c4.781,1.807,10.352,2.117,14.899,0.83c2.064-0.586,3.991-1.451,5.753-2.553
		c-0.974,0.434-1.986,0.8-3.032,1.095C84.87,110.151,79.294,109.838,74.515,108.034"/>
	<path fill="#B5D9D9" d="M113.522,70.291c-5.696,1.831-9.988,5.687-12.133,9.003c0.271,0.506,0.53,1.022,0.769,1.553
		C104.346,77.839,106.872,74.051,113.522,70.291"/>
	<path fill="#B5D9D9" d="M101.944,99.066c2.179,1.104,8.136,0.401,11.848-0.496c0.384-0.093,1.058-0.244,1.937-0.411
		c-8.165,0.833-11.664-0.293-12.863-1.378C102.596,97.553,102.29,98.317,101.944,99.066"/>
	<path fill="#010101" d="M204.092,594.605c-0.793-5.018-3.916-11.771-8.538-18.514c-4.269-6.209-9.177-11.465-13.273-14.211
		c5.075-21.287,8.37-51.924,9.306-86.395c0.878-33.295-0.61-66.291-4.13-90.598c1.169-1.859,2.244-3.764,3.247-5.697
		c3.618-7,6.154-14.385,7.554-21.949c1.25-6.77,1.347-13.504,0.96-17.721c1.775-1.25,2.01-1.906,2.13-2.234
		c0.438-1.264-0.258-4.877-1.065-7.832c-0.917-3.32-2.669-8.584-5.931-14.85c-4.774-9.183-11.038-17.283-18.616-24.073
		c-1.342-1.204-2.741-2.373-4.169-3.489c-3.209-8.767-9.521-25.761-13.27-33.936c1.261-0.711,3.39-2.196,2.75-3.839
		c-2.726-6.907-8.336-15.078-13.892-21.31c-5.009-5.616-9.638-9.483-11.863-10.601c-0.086-1.003-0.246-2.191-0.441-3.6
		c-0.228-1.604-0.461-3.269-0.595-4.906c-0.109-1.373-0.168-2.963-0.215-4.653c-0.182-5.782-0.347-8.709-1.9-10.619
		c-2.013-2.482-10.586-6.716-17.393-8.28c0.199-1.542,0.452-2.818,0.738-3.725c2.851-2.926,4.564-6.277,5.862-9.279
		c1.865-0.382,3.486-1.43,4.59-3.006c1.284-1.823,1.909-4.298,1.408-7.482c11.866-1.836,20.154-6.273,21.2-11.414
		c0.507-2.485-0.31-4.574-3.672-6.768c-0.038-4.436-1.352-9.358-3.634-13.589c-2.76-5.1-6.847-9.058-11.88-11.517
		c1.302-0.673,2.474-1.512,3.457-2.498c2.363-2.378,3.491-5.381,3.259-8.699c-0.083-1.265-0.341-2.412-0.754-3.442
		c2.29-2.602,3.932-5.377,4.896-8.266c0.934-2.808,1.229-5.728,0.869-8.673c-0.864-7.152-5.3-12.699-8.475-15.096
		c2.103-3.564,2.463-6.451,1.595-8.709c-1.074-2.808-3.84-4.119-5.421-4.656c-0.564-3.151-3-11.978-8.762-21.076
		c-3.445-5.465-7.513-10.072-12.073-13.694c-5.29-4.204-11.271-7.086-17.774-8.568C86.382,6.43,80.991,2.772,77.089,1.249
		c-4.496-1.761-9.532-1.656-13.822,0.296c-3.916,1.801-6.927,4.298-8.977,7.458c-1.559-0.248-3.131-0.32-4.653-0.208
		c-5.233,0.391-9.777,2.888-13.127,7.223c-1.922,2.49-3.214,5.214-3.86,8.098c-0.561,2.521-0.631,5.173-0.191,7.894
		c0.176,1.107,0.418,2.165,0.714,3.151c-2.258,3.373-4.097,7.033-5.444,10.916c-1.631,4.727-2.535,9.497-2.762,14.594
		c-0.206,4.538,0.145,9.227,1.048,14.342c1.685,9.457,5.119,19.036,8.437,28.293c0.145,0.396,0.299,0.807,0.438,1.208
		c-2.583-2.444-6.413-5.874-7.012-5.405c-0.695,0.549-0.759,5.132-0.738,7.716c0.043,5.665,0.719,11.33,1.441,11.201
		c0.675-0.119-0.446-10.49,0.253-17.098c0.994,0.736,4.997,4.56,7.124,6.576c1.136,3.208,2.264,6.455,3.285,9.698
		c-0.932,0.258-1.846,0.659-2.706,1.201c-4.253,2.65-6.357,7.809-5.119,12.538c0.708,2.72,1.965,4.935,3.71,6.577
		c1.56,1.459,3.489,2.402,5.557,2.727c1.124,0.175,2.143,0.182,3.062,0.066c0.998,7.036,1.232,19.164,0.689,28.058
		c-6.571-0.248-7.91,4.133-9.634,12.792c-0.282,1.456-0.539,2.712-0.79,3.533c-1.282,4.082-3.968,6.188-4.179,13.05
		c-0.06,2.135,1.179,4.374,3.763,6.799c-1.106,2.535-3.217,8.862-3.833,11.513c-1.232,0.19-2.484,0.438-3.742,0.749
		c-8.049,1.967-14.4,7.276-18.894,15.771c-4.996,9.459-6.474,20.531-6.829,28.147c-0.417,8.654,0.469,17.297,2.241,22.014
		c0.7,1.875,4.952,3.394,6.966,3.64c1.154,4.6,2.732,10.479,4.58,17.067c-2.189,3.226-4.35,8.091-6.438,14.448
		c-1.807,5.506-3.493,11.942-4.862,18.641c-1.252,6.102-2.164,11.994-2.56,16.611c-0.673,7.674,0.347,8.621,0.73,8.973
		c0.914,0.857,2.599,1.678,5.036,2.467c2.156,9.781,7.304,20.156,15.309,30.846c7.864,10.5,16.517,18.699,22.484,23.809
		c1.66,19.547,2.491,37.852,2.491,54.76c0,12.555-0.457,24.336-1.377,35.283c-1.781,21.215-4.85,34.316-6.678,42.154
		c-1.51,6.404-1.565,8.537-1.221,9.338c0.662,1.514,1.729,2.986,3.184,4.414c-1.852,2.051-4.716,6.312-7.308,11.492
		c-4.593,9.205-6.356,18.719-5.753,19.807c3.198,5.754,12.632,16.4,23.612,22.051c1.148,0.592,5.908-1.447,9.069-3.041
		c0.684,1.055,1.446,2.156,2.286,3.289c3.982,5.338,7.896,8.811,11.649,10.312c7.411,2.986,15.462,5.062,23.913,6.166
		c7.216,0.936,14.523,1.17,21.728,0.674c12.078-0.828,22.624-3.787,24.533-6.877c2.192-3.533,1.33-12.357-2.125-21.949
		c-0.071-0.178-0.141-0.363-0.205-0.551c7.645,3.578,19.4,5.25,32.264,4.494c10.127-0.596,24.161-3.195,28.878-8.852
		C204.153,600.478,204.622,597.923,204.092,594.605 M63.875,2.863c3.927-1.79,8.557-1.891,12.69-0.265
		c3.498,1.374,8.297,4.598,11.856,12.173c-7.974-1.542-15.672-1.664-22.843-0.387c-2.012-1.8-4.426-3.261-7.017-4.24
		c-0.893-0.338-1.809-0.618-2.73-0.834C57.729,6.606,60.416,4.445,63.875,2.863 M55.001,10.618c3.151,0.664,6.217,2.091,8.757,4.125
		c-3.877,0.83-7.605,2.072-11.117,3.734c0.143-1.672,0.471-3.347,1.045-4.973C54.041,12.492,54.484,11.524,55.001,10.618
		 M33.885,31.784c-0.877-5.5,0.396-10.509,3.764-14.878c3.101-4,7.28-6.307,12.101-6.667c1.233-0.094,2.493-0.051,3.743,0.117
		c-0.45,0.849-0.842,1.736-1.168,2.669c-0.689,1.943-1.085,4.017-1.182,6.188c-0.623,0.32-1.222,0.645-1.823,0.988
		c-5.975,3.396-11.095,7.984-15.062,13.413C34.11,33.026,33.991,32.409,33.885,31.784"/>
	<path fill="#F4DE12" d="M49.991,135.049c-0.69-0.435-3.168,4.381-9.033,3.464c-3.806-0.6-6.662-3.518-7.838-8.02
		c-1.052-3.992,0.736-8.351,4.344-10.6c1.554-0.968,3.205-1.384,4.831-1.274c3.396,0.231,5.716,2.471,6.112,2.015
		c0.527-0.617-2.608-3.607-6.142-3.787c-0.427-0.019-0.858-0.004-1.286,0.034c-0.716-2.302-1.498-4.593-2.288-6.882
		c1.88,1.624,3.442,2.767,3.907,2.499c0.88-0.486,0.604-5.118,0.321-9.516c-0.204-3.294-0.449-9.674-0.241-11.503
		c1.044,1.173,2.638,3.235,4.428,5.666c5.188,7.038,10.557,15.416,11.21,14.993c0.772-0.485-4.665-8.536-9.914-15.681
		c-2.545-3.455-5.43-7.389-6.418-7.136c-1.447,0.382-0.728,10.318-0.506,13.753c0.129,2.069,0.36,6.229,0.281,7.585
		c-1.098-0.764-2.546-2.04-4.043-3.452c-0.538-1.507-1.075-3.01-1.606-4.493c-3.451-9.615-6.711-18.696-8.373-28.009
		c-0.881-4.985-1.213-9.547-1.018-13.952c0.218-4.923,1.096-9.54,2.67-14.103c1.142-3.307,2.662-6.453,4.505-9.377
		c1.813,4.615,4.447,7.35,4.869,7.028c0.672-0.52-2.143-3.522-3.876-8.54c3.929-5.72,9.144-10.53,15.3-14.033
		c0.307-0.182,0.618-0.353,0.938-0.521c0.021,0.751,0.078,1.509,0.171,2.278c0.582,4.951,2.963,10.141,3.766,9.735
		c0.794-0.396-2.479-5.361-2.498-12.756c10.5-5.204,22.957-6.529,36.228-3.832c6.637,1.358,12.713,4.198,18.07,8.452
		c4.401,3.501,8.337,7.959,11.688,13.259c6.07,9.606,8.318,18.956,8.591,20.93c0.042,0.346,0.292,0.632,0.625,0.729
		c1.136,0.319,3.873,1.336,4.804,3.759c0.716,1.879,0.239,4.271-1.422,7.123c-4.866-2.88-10.319-3.777-15.819-2.579
		c-5.907,1.289-11.494,4.938-14.75,9.612c-1.957-3.075-4.588-5.544-7.787-7.291c-5.64-3.07-12.841-3.697-19.247-1.689
		c-4.436,1.397-10.786,5.336-14.069,11.844c-2.646,5.229-2.875,11.125-0.672,17.529c2.55,7.405,8.189,10.901,12.482,12.529
		c5.061,1.907,10.971,2.235,15.813,0.861c6.03-1.709,11.007-5.637,14.048-11.073c3.728,1.875,12.662-0.26,13.059-0.355
		c1.193-0.289,11.771-2.702,17.071,1.184c1.875,1.371,2.869,3.331,3.051,5.988c0.192,2.798-0.76,5.338-2.756,7.337
		c-2.66,2.677-6.928,4.114-11.414,3.836l-3.512-0.248c-4.99-0.356-11.822-0.853-17.256-0.688l-1.447,0.029
		c-4.249,0.061-12.161,0.176-20.194,3.241c-9.897,3.785-16.946,10.872-20.938,21.076c-4.833,12.33-0.553,22.185,3.892,28.274
		c4.103,5.633,10.254,10.617,17.323,14.029c6.802,3.282,13.868,4.887,19.895,4.513c6.26-0.385,11.271-2.091,15.25-5.188
		c-0.605,3.358-0.792,8.57-0.42,13.607c0.345,4.611,1.437,12.96,4.99,17.811c-1.641,2.961-3.082,5.521-3.967,6.852
		c-2.262-2.13-7.689-10.07-11.395-15.504c-3.543-5.176-5.582-8.14-6.417-8.896c-0.096-0.08-5.548-2.043-6.795-2.473
		c-8.231-2.879-20.676-7.225-30.879-11.747c-6.283-2.783-10.351-5.037-12.961-6.842c1.467-7.76,1.514-26.939,0.135-36.542
		C49.145,138.698,50.596,135.436,49.991,135.049"/>
	<path fill="#010101" d="M42.639,124.633c-3.354-1.358-5.712,1.067-5.498,1.425c0.28,0.481,2.517-0.855,4.614-0.208
		c-0.86,0.738-1.544,1.837-1.803,3.021c-0.726,3.307,2.25,5.422,2.673,4.984c0.732-0.759-1.86-1.938-1.26-4.68
		c0.267-1.218,1.097-2.162,1.834-2.563c1.962,1.518,2.628,4.975,3.447,4.746C47.551,131.11,46.458,126.178,42.639,124.633"/>
	<path fill="#78C0EA" d="M131.758,557.052c0.599-4.086,1.232-8.637,1.872-13.551c3.805,1.281,12.7,2.189,22.184,2.213
		c7.062,0.012,19.839-0.455,28.506-3.645c-1.128,7.174-2.393,13.742-3.797,19.604c-2.779,1.23-10.676,3.293-20.191,4.217
		c-8.218,0.795-19.924,0.965-29.507-2.621C131.118,561.417,131.43,559.351,131.758,557.052"/>
	<path fill="#78C0EA" d="M190.077,456.644c0,6.217-0.081,12.5-0.258,18.797c-0.64,24.209-2.464,46.508-5.252,64.984
		c-6.192,2.477-16.626,3.871-28.754,3.84c-10.733-0.021-19.028-1.131-21.996-2.227c1.278-9.811,2.63-20.959,3.933-32.639
		c2.161-19.275,7.411-65.74,7.229-88.186c11.125-5.301,20.796-11.836,28.731-19.443c4.692-4.508,8.81-9.406,12.299-14.625
		C188.659,406.47,190.077,430.974,190.077,456.644"/>
	<path fill="#F4DE12" d="M154.438,276.413c-2.234-8.922-5.366-17.171-8.672-24.362c1.553-0.511,4.255-1.157,6.924-1.632
		c0.826-0.148,1.561-0.268,2.229-0.356c3.028,4.699,10.892,26.04,14.066,34.742c-2.721-1.966-5.558-3.758-8.518-5.394
		C158.415,278.28,156.376,277.279,154.438,276.413"/>
	<path fill="#FFFFFF" d="M134.565,221.369c0.478-0.403,0.713-1.037,0.778-1.956c2.3,1.482,6.394,5.104,10.495,9.712
		c4.006,4.49,9.358,11.348,12.878,19.188c-3.524-0.106-10.733,1.437-13.689,2.444c-2.827-6.003-5.74-11.201-8.266-15.332
		c-3.084-5.071-6.202-9.568-9.015-13.252C130.788,222.825,133.377,222.352,134.565,221.369"/>
	<path fill="#FFFFFF" d="M131.939,198.13c0.21,1.743,0.276,3.973,0.346,6.121c0.056,1.714,0.109,3.323,0.217,4.736
		c0.134,1.695,0.387,3.462,0.607,5.023c0.263,1.862,0.969,5.2,0.319,6.012c-0.964,0.802-4.116,1.131-7.578-0.268
		c-2.071-2.569-3.91-4.607-5.368-6.012c0.194-0.357,0.394-0.726,0.599-1.097c2.297-4.165,8.008-14.861,10.261-17.134
		C131.502,195.838,131.753,196.555,131.939,198.13"/>
	<path fill="#FFFFFF" d="M130.11,194.265c-2.397,2.38-7.587,12.119-10.566,17.54c-0.292,0.516-0.578,1.041-0.857,1.552
		c-2.194-3.442-3.667-9.129-4.189-16.223c-0.263-3.677-0.2-7.193,0.055-10.067C118.87,188.102,126.486,190.861,130.11,194.265"/>
	<path fill="#D2B16B" d="M139.693,130.872c2.239,4.129,3.481,8.95,3.423,13.226c-0.009,0.309,0.158,0.601,0.426,0.764
		c1.762,1.062,3.763,2.822,3.275,5.186c-1.013,4.967-10.239,8.69-20.632,10.159c-7.738,1.09-19.787,0.79-31.454-0.791
		c-12.383-1.674-22.558-4.505-28.036-7.78c0.967-1.669,2.821-2.55,2.665-2.935c-0.183-0.443-3.564,0.622-4.426,3.323
		c-0.93,2.941,0.786,5.742,1.211,5.592c0.151-0.056-0.305-2.373-0.023-4.288c5.757,3.318,16.013,6.16,28.378,7.83
		c11.397,1.543,23.196,1.877,31.093,0.899c0.396,2.487,0.024,4.631-1.093,6.23c-0.911,1.306-2.307,2.152-3.898,2.363
		c-0.307,0.04-0.571,0.243-0.69,0.525c-1.389,3.287-3.272,7.062-6.668,10.128c-3.862,3.484-8.911,5.383-15.435,5.789
		c-5.734,0.355-12.487-1.187-19.021-4.343c-6.816-3.293-12.734-8.079-16.672-13.479c-4.182-5.74-8.207-15.013-3.676-26.598
		c8.911-22.755,31.152-23.084,39.532-23.208l1.475-0.026c5.333-0.165,12.123,0.326,17.073,0.685l3.53,0.246
		c2.53,0.155,5.001-0.189,7.225-0.958C132.354,121.702,136.981,125.848,139.693,130.872"/>
	<path fill="#FFFFFF" d="M139.654,87.112c0.33,2.732,0.059,5.446-0.808,8.046c-0.849,2.544-2.271,5.001-4.234,7.329
		c-0.596-0.947-1.362-1.759-2.291-2.444c-5.83-4.271-16.454-1.979-18.529-1.473c-3.712,0.902-9.669,1.6-11.848,0.496
		c2.2-4.717,2.798-10.017,1.58-14.422c-0.53-1.92-1.249-3.708-2.135-5.351c2.399-3.72,7.491-8.108,14.243-9.574
		c5.41-1.179,10.771-0.19,15.5,2.856C134.073,74.467,138.781,79.91,139.654,87.112"/>
	<path fill="#FFFFFF" d="M102.13,85.026c1.218,4.429,0.454,9.858-2.046,14.528c-2.831,5.295-7.585,9.11-13.386,10.761
		c-4.548,1.29-10.118,0.975-14.9-0.837c-4.001-1.512-9.265-4.758-11.635-11.637c-2.055-6.022-1.86-11.543,0.598-16.413
		c3.085-6.102,9.048-9.798,13.218-11.111c6.047-1.896,12.821-1.306,18.12,1.576C97.035,74.586,100.504,79.126,102.13,85.026"/>
	<path fill="#FFFFFF" d="M44.319,170.135c-0.152,1.965-0.344,3.715-0.572,5.157c-2.301-1.853-2.871-3.124-2.871-3.926
		C40.876,170.507,41.446,170.135,44.319,170.135"/>
	<path fill="#FFFFFF" d="M31.586,197.79c0.207-6.822,2.812-8.466,4.097-12.576c0.694-2.216,1.716-9.951,3.589-12.813
		c1,3.436,6.903,7.455,18.304,12.51c10.264,4.553,22.754,8.907,31.011,11.798c2.523,0.882,4.706,1.646,6.303,2.229
		c0.008,0.005,0.013,0.01,0.013,0.018c-3.295,2.375-5.969,9.303-8.555,16.019c-1.09,2.843-2.135,5.531-3.121,7.59
		c-1.284,2.681-2.056,3.347-2.419,3.502c-0.582,0.114-3.938-0.615-12.58-4.204c-6.164-2.564-12.457-5.538-14.952-7.076
		c-1.056-0.652-2.528-1.447-4.231-2.368C42.46,208.863,31.438,202.919,31.586,197.79"/>
	<path fill="#FFFFFF" d="M34.986,205.755c0.457,0.366,0.931,0.745,1.444,1.122c3.67,2.707,8.167,5.138,11.782,7.08
		c1.68,0.911,3.129,1.696,4.143,2.324c2.662,1.638,9.023,4.639,15.477,7.308c11.749,4.865,13.152,4.304,13.613,4.116
		c2.112-0.846,3.858-5.152,6.542-12.1c2.298-5.974,5.128-13.317,8.004-15.279c1.201,1.621,3.035,4.302,4.936,7.088
		c6.172,9.032,10.687,15.504,12.624,16.53c0.368,0.203,0.836,0.107,1.097-0.22c0.876-1.081,2.714-4.342,4.949-8.382
		c3.056,3.032,9.018,10.075,15.666,20.99c5.485,9.003,12.835,23.069,17.131,39.502c-6.812-2.815-12.063-3.883-12.222-3.326
		c-0.354,1.283,8.254,2.541,19.562,8.803c5.119,2.827,9.875,6.171,14.229,9.994c7.371,6.478,13.517,14.221,18.253,23.023
		c3.425,6.358,5.282,11.743,6.246,15.149c1.241,4.391,1.361,6.799,1.223,7.223c-0.114,0.318-1.241,2.154-12.521,6.975
		c-7.566,3.229-17.675,6.93-28.447,10.406c-11.633,3.742-23.11,6.938-33.209,9.248c-11.198,2.555-20.084,3.891-26.425,3.973
		c-1.745-6.273-4.198-14.93-6.89-24.43c-6.619-23.408-15.087-53.346-19.465-70.007c2.329-0.903,7.052-3.789,7.052-7.11
		c0-1.986-1.538-9.272-5.238-17.902c-3.184-7.442-8.843-17.756-17.666-24.679c-7.492-5.881-15.962-8.347-25.247-7.363
		C32.309,213.198,33.981,208.214,34.986,205.755"/>
	<path fill="#F4DE12" d="M47.504,394.722c-4.985-8.445-13.422-31.305-23.155-62.75c-8.116-26.23-14.288-49.328-15.053-54.714
		c6.243-4.528,17.158-9.099,29.554-12.094c8.412-2.035,16.428-3.065,23.189-2.98c2.299,0.024,4.43,0.187,6.361,0.476
		c2.027,9.714,13.593,50.596,22.11,80.688c3.893,13.766,7.289,25.773,8.773,31.27c-2.431,0.129-5.82,0.777-10.142,1.947
		c-6.23,1.693-14.028,4.389-21.385,7.418c-6.019,2.477-11.338,4.895-15.255,7.215C50.205,392.554,48.607,393.73,47.504,394.722"/>
	<path fill="#FFFFFF" d="M70.264,262.986c3.23,0.663,5.843,1.724,7.721,3.155c-0.403,1.984-3.669,4.174-5.703,5.005
		C71.377,267.666,70.682,264.875,70.264,262.986"/>
	<path fill="#FFFFFF" d="M2.038,260.809c0.36-7.439,1.79-18.234,6.638-27.417c4.244-8.03,10.222-13.035,17.76-14.884
		c10.946-2.686,20.826-0.648,29.354,6.041c14.362,11.273,20.794,32.406,22.017,39.352c-3.642-2.223-8.918-3.388-15.744-3.472
		c-6.902-0.081-15.078,0.963-23.622,3.025c-13.82,3.337-29.857,9.85-34.85,16.817C2.296,275.529,1.696,268.195,2.038,260.809"/>
	<path fill="#FFFFFF" d="M4.344,282.387c0.648-1.259,1.792-2.569,3.379-3.893c0.254,1.447,0.713,3.513,1.332,6.066
		C7.275,284.234,5.023,283.157,4.344,282.387"/>
	<path fill="#FFFFFF" d="M1.749,357.585c0-1.117,0.062-2.611,0.249-4.604c0.418-4.574,1.328-10.4,2.562-16.387
		c2.776-13.398,6.521-24.729,10.169-30.884c2.349,8.295,5.099,17.568,7.949,26.777c2.454,7.938,6.914,21.932,11.637,35.148
		c-3.505-0.277-9.9-0.998-16.154-2.068c-8.617-1.475-14.302-3.15-16.003-4.736C2.108,360.785,1.749,360.244,1.749,357.585"/>
	<path fill="#78C0EA" d="M46.646,509.423c2.181-25.859,1.787-56.375-1.147-90.693c-0.023-0.229-0.126-0.445-0.3-0.596
		c-5.914-5.023-14.604-13.23-22.493-23.76c-7.589-10.137-12.56-19.953-14.774-29.207c2.644,0.74,5.963,1.451,9.936,2.135
		c6.794,1.164,13.771,1.914,17.096,2.139c3.961,10.986,8.054,21.205,11.243,26.623c-1.209,1.477-1.083,2.289-0.873,2.357
		c0.382,0.123,0.935-2.26,7.987-6.027c3.883-2.068,8.992-4.613,14.99-7.082c7.306-2.998,15.037-5.678,21.211-7.346
		c9.379-2.543,12.02-1.961,12.718-1.598c1.495,0.783,3.123,4.379,4.255,9.396c1.874,8.281,1.142,14.479,1.902,14.545
		c0.871,0.082,1.228-7.26-0.493-14.865c-0.738-3.279-2.376-8.99-4.995-10.355c-0.446-0.234-1.046-0.383-1.805-0.453
		c-0.372-1.391-0.896-3.291-1.528-5.586c12.415-0.287,34.556-5.211,59.677-13.299c10.828-3.486,20.99-7.205,28.609-10.461
		c4.675-2.006,7.707-3.535,9.679-4.699c0.282,3.744,0.277,9.354-1.007,16.33c-1.366,7.398-3.858,14.621-7.391,21.459
		c-4.174,8.092-9.785,15.535-16.646,22.121c-7.931,7.598-17.608,14.109-28.772,19.371c-0.309,0.143-0.503,0.457-0.503,0.803
		c0.23,15.795-3.737,57.498-7.199,88.416c-1.788,16-3.653,31.023-5.321,42.934c-7.504,2.029-16.347,2.736-26.269,2.111
		c-8.553-0.551-17.67-2.053-27.092-4.484c-16.699-4.307-30.611-10.686-34.002-14.162C44.549,528.576,45.756,520.005,46.646,509.423"
		/>
	<path fill="#78C0EA" d="M38.614,560.066c-0.398-0.916,0.312-3.988,1.304-8.242c0.863-3.646,1.979-8.436,3.12-14.652
		c4.517,3.762,17.777,9.711,33.943,13.879c9.507,2.455,18.71,3.973,27.362,4.521c9.816,0.633,18.604-0.039,26.14-1.988
		c-0.144,1.059-0.292,2.09-0.442,3.088c-2.81,19.33-3.982,22.033-4.275,22.398c-2.311,2.744-17.201,3.777-38.133,0.762
		c-11.684-1.691-22.757-4.336-31.176-7.48C46.699,568.708,40.535,564.458,38.614,560.066"/>
	<path fill="#010101" d="M52.693,616.58c1.168-2.297,2.717-5.105,3.822-6.586c0.512,0.945,1.302,2.359,2.33,4.016
		C57.214,614.816,54.578,616.025,52.693,616.58"/>
	<path fill="#11412F" d="M142.423,628.138c-1.206,1.943-9.931,5.139-23.166,6.051c-7.082,0.486-14.276,0.262-21.377-0.664
		c-8.308-1.1-16.212-3.129-23.489-6.051c-5.002-2.014-9.611-7.691-12.757-12.395c-2.443-3.664-4.177-7.277-4.747-7.488
		c-1.303-0.471-4.919,6.527-6.144,8.963c-10.159-5.496-18.832-15.236-21.956-20.697c0.688-11.547,9.143-25.527,12.7-29.5
		c3.295,2.74,8.09,5.295,14.362,7.635c8.531,3.182,19.732,5.877,31.53,7.582c13.096,1.887,28.019,2.65,35.512,0.736
		c6.875,5.4,13.438,14.869,17.241,25.4C143.322,616.541,144.292,625.13,142.423,628.138"/>
	<path fill="#11412F" d="M201.369,601.08c-4.134,4.961-17.595,7.631-27.626,8.217c-11.679,0.693-25.116-0.701-33.128-5.199
		c-1.633-3.953-3.615-7.75-5.816-11.148c-2.983-4.574-6.312-8.371-9.917-11.287c0.988-0.402,1.743-0.896,2.221-1.463
		c0.364-0.43,1.246-1.484,3.444-15.172c9.829,3.594,21.652,3.408,29.95,2.617c9.756-0.953,17.7-3.043,20.723-4.365
		c3.921,2.605,8.7,7.717,12.878,13.807c4.488,6.529,7.502,13.021,8.251,17.797C202.793,597.675,202.463,599.761,201.369,601.08"/>
	<path fill="#010101" d="M99.893,428.08c7.428-6.072,8.151-16.395,7.433-16.502c-0.604-0.086-1.242,9.564-8.344,15.381
		c-5.67,4.641-14.027,6.234-13.843,6.914C85.386,434.73,94.733,432.306,99.893,428.08"/>
	<path fill="#010101" d="M73.854,90.046c-2.007,0-3.632,1.628-3.632,3.631c0,2.008,1.625,3.638,3.632,3.638
		c2.004,0,3.635-1.63,3.635-3.638C77.488,91.675,75.857,90.046,73.854,90.046"/>
	<path fill="#010101" d="M124.044,86.866c-1.819,0-3.287,1.473-3.287,3.294c0,1.82,1.468,3.294,3.287,3.294
		c1.818,0,3.302-1.474,3.302-3.294C127.346,88.339,125.862,86.866,124.044,86.866"/>
	<path fill="#EF9C20" d="M9.296,277.254c0.763,5.391,6.937,28.486,15.054,54.718c9.733,31.447,18.169,54.299,23.154,62.754
		c1.104-0.994,2.701-2.176,4.999-3.531c3.917-2.32,9.237-4.74,15.255-7.215c0.189-0.08,0.383-0.158,0.58-0.234
		c-11.684-29.766-33.414-101.828-37.72-116.3C21.71,270.243,14.11,273.763,9.296,277.254"/>
	<path fill="#B5D9D9" d="M51.252,190.681c0.291-5.188,1.203-7.115,1.861-7.835c-8.498-4.104-12.98-7.492-13.84-10.447
		c-1.873,2.854-2.895,10.6-3.59,12.815c-1.285,4.11-3.89,5.754-4.097,12.579c-0.128,4.467,8.23,9.562,14.736,13.147
		C45.749,204.27,50.813,198.487,51.252,190.681"/>
	<path fill="#B5D9D9" d="M39.256,217.572c-4.087-0.468-8.363-0.158-12.822,0.936c-7.535,1.849-13.513,6.854-17.758,14.889
		c-4.847,9.178-6.276,19.973-6.639,27.412c-0.339,7.39,0.259,14.725,1.554,19.463c4.017-5.592,15.147-10.896,26.53-14.492
		C24.564,234.318,34.001,221.649,39.256,217.572"/>
	<path fill="#B5D9D9" d="M52.037,216.087c-0.992-0.596-2.314-1.311-3.824-2.125c-3.617-1.947-8.112-4.376-11.782-7.085
		c-0.515-0.374-0.988-0.753-1.445-1.122c-1.005,2.459-2.67,7.448-3.357,10.056c6.495-0.688,12.595,0.315,18.233,2.994
		C50.628,217.732,51.473,216.632,52.037,216.087"/>
	<path fill="#B5D9D9" d="M96.197,204.738c3.13,0.853,7.604,8.762,12.355,13.575c-2.097-2.837-4.666-6.571-7.631-10.901
		c-1.896-2.784-3.728-5.465-4.931-7.089c-2.279,1.559-4.527,6.503-6.512,11.468C92.271,207.851,95.564,204.561,96.197,204.738"/>
	<path fill="#92572A" d="M61.121,150.716c1.166-12.711,7.607-21.277,12.537-25.933c-6.039,3.357-11.681,8.854-15.22,17.888
		c-4.534,11.587-0.506,20.865,3.675,26.6c3.937,5.4,9.862,10.188,16.676,13.482c6.532,3.155,13.287,4.692,19.02,4.337
		c1.356-0.083,2.65-0.229,3.887-0.449C85.268,185.42,59.25,171.146,61.121,150.716"/>
	<path fill="#E7D8A7" d="M146.819,150.045c0.485-2.359-1.516-4.124-3.277-5.186c-0.268-0.16-0.435-0.455-0.426-0.761
		c0.061-4.273-1.182-9.092-3.423-13.226c-2.717-5.024-7.337-9.173-12.419-11.46c-0.998,0.343-2.042,0.601-3.118,0.769
		c3.529,2.077,13.665,9.516,13.14,26.228c0,0,6.031,4.918,2.65,10.066C143.719,154.727,146.311,152.544,146.819,150.045"/>
	<path fill="#E7D8A7" d="M115.666,168.383c-4.335,0.233-1.6,2.516-0.554,2.635c0.758,0.086,0.603,6.036-2.609,10.921
		c0.251-0.204,0.489-0.416,0.74-0.635c3.393-3.068,5.279-6.841,6.668-10.128c0.122-0.287,0.387-0.486,0.692-0.525
		c1.59-0.211,2.98-1.055,3.896-2.368c1.117-1.59,1.489-3.733,1.098-6.226c-1.746,0.214-3.686,0.367-5.772,0.457
		C119.597,164.716,118.56,168.22,115.666,168.383"/>
	<path fill="#EF9C20" d="M78.024,184.33c-7.07-3.409-13.223-8.394-17.323-14.029c-4.441-6.092-8.723-15.941-3.893-28.271
		c3.993-10.204,11.041-17.293,20.942-21.073c0.994-0.379,1.982-0.713,2.978-1.009c-14.947,2.976-23.44,13.823-24.237,13.865
		c-0.705,0.039-1.499-13.753-5.391-31.088c-1.284-1.832-2.64-3.751-3.994-5.582c-1.79-2.431-3.384-4.49-4.428-5.664
		c-0.208,1.83,0.039,8.207,0.244,11.508c0.278,4.388,0.556,9.02-0.325,9.513c-0.465,0.265-2.023-0.878-3.906-2.499
		c0.789,2.277,1.572,4.578,2.291,6.88c0.425-0.043,0.856-0.053,1.283-0.034c3.254,0.16,6.173,2.718,6.195,3.601
		c1.878,2.732-0.507,3.885-2.066,2.667c-1.119-0.861-4.569-2.874-7.727-1.428c-3.091,1.416-4.996,4.782-5.837,6.959
		c0.031,0.626,0.124,1.237,0.288,1.848c1.171,4.499,4.033,7.42,7.838,8.018c5.865,0.917,8.344-3.899,9.034-3.464
		c0.604,0.387-0.847,3.651-4.533,4.875c1.382,9.605,1.337,28.785-0.132,36.547c2.35,1.621,5.883,3.612,11.147,6.021
		c0.159-6.705-0.363-12.051,0.451-11.138c10.263,11.534,22.059,15.479,31.216,16.578C84.811,187.166,81.387,185.955,78.024,184.33
		 M46.646,131.358c-0.819,0.227-1.483-3.228-3.445-4.746c-0.739,0.401-1.569,1.35-1.836,2.563c-0.598,2.742,1.992,3.923,1.26,4.68
		c-0.42,0.435-3.396-1.673-2.669-4.984c0.257-1.184,0.938-2.288,1.799-3.021c-2.095-0.647-4.332,0.69-4.618,0.211
		c-0.21-0.36,2.148-2.786,5.502-1.425C46.466,126.178,47.551,131.11,46.646,131.358"/>
	<path fill="#EF9C20" d="M34.889,35.761c1.733,5.018,4.545,8.018,3.875,8.542c-0.421,0.319-3.056-2.418-4.869-7.028
		c-1.843,2.922-3.363,6.063-4.505,9.373c-1.576,4.565-2.451,9.18-2.669,14.105c-0.195,4.403,0.136,8.962,1.017,13.952
		c1.662,9.316,4.922,18.397,8.374,28.009c0.53,1.485,1.068,2.984,1.604,4.498c1.5,1.403,2.944,2.686,4.046,3.447
		c0.078-1.356-0.152-5.523-0.284-7.583c-0.222-3.438-0.938-13.379,0.506-13.753c0.991-0.255,3.872,3.676,6.418,7.133
		c0.569,0.775,1.144,1.561,1.711,2.351c-1.124-4.321-2.67-10.084-3.679-13.138c-7.195-21.757-7.407-52.654,4.694-64.465
		c-0.321,0.17-0.633,0.341-0.939,0.523C44.031,25.229,38.814,30.043,34.889,35.761"/>
	<path fill="#E9E74A" d="M131.571,114.783c1.991-2.003,2.948-4.543,2.756-7.337c-0.182-2.66-1.176-4.617-3.051-5.988
		c-5.301-3.888-15.878-1.473-17.071-1.189c-0.396,0.1-9.331,2.235-13.059,0.36c-0.291,0.523-0.602,1.025-0.924,1.514
		c2.017,0.681,7.881,2.044,17.923,0.717c4.488-0.598,10.532,0.419,11.917,4.911c1.408,4.564-3.52,9.205-9.182,10.875
		C125.106,118.734,129.06,117.318,131.571,114.783"/>
	<path fill="#E9E74A" d="M115.218,219.549c0.735-1.265,1.601-2.806,2.521-4.474c-3.554-4.851-4.648-13.199-4.99-17.815
		c-0.372-5.037-0.186-10.242,0.42-13.604c-0.97,0.756-2.005,1.427-3.104,2.022C109.644,190.112,108.733,208.939,115.218,219.549"/>
	<path fill="#E9E74A" d="M120.093,56.819c0,0-5.377,0.291-5.243,2.726c0.097,1.714,4.231,1.793,7.619,2.541
		c3.165,0.692,4.884,4.266,4.196,6.756c1.536,0.506,3.036,1.186,4.482,2.044c1.661-2.851,2.138-5.244,1.417-7.125
		c-0.926-2.422-3.663-3.44-4.799-3.757c-0.333-0.099-0.585-0.386-0.63-0.731c-0.268-1.979-2.516-11.321-8.586-20.928
		c-3.351-5.3-7.284-9.76-11.692-13.259c-5.353-4.254-11.431-7.096-18.068-8.452c-4.207-0.854-8.333-1.308-12.34-1.355
		C92.003,17.474,112.868,27.974,120.093,56.819"/>
	<path fill="#E9E74A" d="M154.92,250.06c-0.669,0.092-1.403,0.211-2.225,0.359c-0.573,0.098-1.141,0.21-1.695,0.319
		c2.894,6.532,10.361,23.254,13.833,31.252c1.418,0.897,2.799,1.838,4.158,2.812C165.807,276.103,157.943,254.754,154.92,250.06"/>
	<path fill="#6393CD" d="M99.893,428.08c-5.159,4.227-14.507,6.65-14.754,5.793c-0.185-0.68,8.173-2.275,13.843-6.914
		c0.15-0.119,0.303-0.252,0.446-0.375c-9.536,4.287-21.021-0.877-25.449-7.355c-8.274-12.109-9.168-27.975-9.258-32.383
		c-4.456,1.965-8.319,3.91-11.399,5.549c-7.056,3.768-7.606,6.145-7.987,6.025c-0.209-0.062-0.337-0.885,0.874-2.359
		c-3.193-5.414-7.284-15.633-11.247-26.617c-3.322-0.223-10.304-0.98-17.096-2.141c-3.973-0.68-7.29-1.395-9.934-2.125
		c2.216,9.246,7.184,19.064,14.774,29.197c7.886,10.531,16.58,18.732,22.493,23.762c0.171,0.146,0.277,0.365,0.302,0.594
		c2.934,34.322,3.324,64.834,1.141,90.693c-0.887,10.59-2.095,19.152-3.297,26.074c3.384,3.469,17.293,9.842,33.993,14.156
		c0.41,0.102,0.812,0.201,1.213,0.307c16.858-97.967,6.474-111.158,11.423-113.982c4.911-1.795,8.286-5.238,10.495-8.389
		C100.284,427.75,100.094,427.917,99.893,428.08"/>
	<path fill="#A6DAF6" d="M136.02,509.091c3.464-30.92,7.43-72.621,7.198-88.416c0-0.348,0.195-0.662,0.506-0.803
		c11.169-5.266,20.842-11.777,28.772-19.371c6.866-6.584,12.473-14.027,16.646-22.117c3.537-6.846,6.024-14.068,7.391-21.463
		c1.284-6.979,1.284-12.59,1.007-16.33c-1.542,0.912-3.729,2.049-6.852,3.451c-1.93,22.469-11.636,56.572-47.562,72.906
		c0,0-0.323-6.072-2.218-5.617c-1.643,0.395-5.153,74.123-15.491,141.863c1.824-0.318,3.591-0.711,5.281-1.17
		C132.371,540.113,134.235,525.091,136.02,509.091"/>
	<path fill="#6D968F" d="M201.369,601.41c1.094-1.314,1.424-3.404,0.979-6.189c-0.749-4.77-3.763-11.264-8.251-17.799
		c-4.178-6.082-8.957-11.201-12.878-13.797c-1.347,0.582-3.652,1.316-6.669,2.043c3.934,4.793,21.171,26.129,19.843,40.025
		C197.469,604.527,199.966,603.099,201.369,601.41"/>
	<path fill="#010101" d="M130.55,565.033c-2.198,13.686-3.083,14.734-3.447,15.166c-0.475,0.57-1.232,1.061-2.216,1.467
		c2.177,1.764,4.265,3.863,6.241,6.256c0.095-4.219,0.78-15.293,2.425-21.914C132.533,565.714,131.526,565.4,130.55,565.033"/>
	<path fill="#6393CD" d="M77.482,551.048c-16.156-4.168-29.432-10.115-33.944-13.875c-1.138,6.211-2.262,11.006-3.116,14.65
		c-0.993,4.254-1.708,7.326-1.309,8.242c1.923,4.389,8.094,8.643,17.846,12.283c4.959,1.848,10.835,3.529,17.213,4.943
		c1.997-10.648,3.709-21.062,4.519-25.943C78.292,551.255,77.891,551.15,77.482,551.048"/>
	<path fill="#A6DAF6" d="M125.768,579.072c0.291-0.367,1.464-3.07,4.271-22.4c0.152-1,0.301-2.039,0.449-3.09
		c-1.711,0.439-3.479,0.812-5.31,1.127c-1.271,7.912-3.152,18.607-4.613,26.293C123.292,580.55,125.082,579.884,125.768,579.072"/>
	<path fill="#010101" d="M71.3,578.552c-5.693-1.328-10.951-2.875-15.448-4.557c-6.274-2.344-11.071-4.898-14.363-7.635
		c-3.557,3.963-12.013,17.945-12.703,29.496c3.127,5.467,11.799,15.201,21.958,20.693c1.225-2.436,4.838-9.43,6.142-8.959
		c0.577,0.211,2.306,3.824,4.749,7.482c1.4,2.092,3.084,4.385,4.967,6.455C60.61,605.992,67.711,586.355,71.3,578.552"/>
	<path fill="#6D968F" d="M142.423,628.138c1.869-3.008,0.899-11.598-2.29-20.428c-3.803-10.531-10.366-20-17.241-25.4
		c-1.075,0.271-2.283,0.492-3.61,0.656c5.781,5.445,18.956,22.469,19.706,47.334C140.845,629.529,142.024,628.759,142.423,628.138"
		/>
	<path fill="#6393CD" d="M144.979,421.214c0.183,22.449-5.066,68.91-7.229,88.191c-1.308,11.676-2.654,22.828-3.93,32.631
		c0.802,0.301,1.991,0.602,3.515,0.869c3.71-28.748,9.63-81.428,10.901-123.301C147.169,420.144,146.082,420.689,144.979,421.214"/>
	<path fill="#A6DAF6" d="M189.824,475.441c0.167-6.297,0.253-12.582,0.253-18.799c0-25.67-1.423-50.172-4.068-69.496
		c-1.642,2.467-3.438,4.855-5.352,7.166c1.365,14.48,6.125,79.311-3.061,148.111c2.688-0.559,5.032-1.223,6.976-2.002
		C187.351,521.949,189.175,499.65,189.824,475.441"/>
	<path fill="#6393CD" d="M133.627,543.501c-0.637,4.916-1.272,9.465-1.874,13.551c-0.32,2.299-0.63,4.365-0.927,6.217
		c1.104,0.412,2.235,0.77,3.382,1.09c0.477-3.031,1.731-10.732,2.969-20.004C135.735,544.089,134.541,543.808,133.627,543.501"/>
	<path fill="#A6DAF6" d="M184.319,542.07c-2.115,0.777-4.483,1.398-6.943,1.885c-0.878,5.965-2.195,13.719-3.266,19.67
		c2.946-0.703,5.176-1.42,6.412-1.957C181.927,555.806,183.196,549.24,184.319,542.07"/>
	<path fill="#E9E74A" d="M87.018,62.357c7.998,1.619,9.114,5.82,10.748,3.667c1.017-1.337-1.077-7.174-10.089-8.781
		c-5.055-0.897-10.535,1.06-10.972,3.14C76.229,62.715,79.443,60.834,87.018,62.357"/>
	<path fill="#B5D9D9" d="M44.319,170.135c-0.152,1.965-0.344,3.715-0.572,5.157c-2.301-1.853-2.871-3.124-2.871-3.926
		C40.876,170.507,41.446,170.135,44.319,170.135"/>
	<path fill="#B5D9D9" d="M131.939,198.13c0.21,1.743,0.276,3.973,0.346,6.121c0.056,1.714,0.109,3.323,0.217,4.736
		c0.134,1.695,0.387,3.462,0.607,5.023c0.263,1.862,0.969,5.2,0.319,6.012c-0.964,0.802-4.116,1.131-7.578-0.268
		c-2.071-2.569-3.91-4.607-5.368-6.012c0.194-0.357,0.394-0.726,0.599-1.097c2.297-4.165,8.008-14.861,10.261-17.134
		C131.502,195.838,131.753,196.555,131.939,198.13"/>
	<path fill="#B5D9D9" d="M70.264,262.986c3.23,0.663,5.843,1.724,7.721,3.155c-0.403,1.984-3.669,4.174-5.703,5.005
		C71.377,267.666,70.682,264.872,70.264,262.986"/>
	<path fill="#B5D9D9" d="M4.344,282.387c0.648-1.259,1.792-2.569,3.379-3.893c0.254,1.447,0.713,3.513,1.332,6.066
		C7.275,284.234,5.023,283.154,4.344,282.387"/>
	<path fill="#B5D9D9" d="M1.749,357.585c0-1.117,0.062-2.611,0.249-4.604c0.418-4.574,1.328-10.4,2.562-16.387
		c2.776-13.398,6.521-24.729,10.169-30.884c2.349,8.295,5.099,17.568,7.949,26.777c2.454,7.938,6.914,21.932,11.637,35.148
		c-3.505-0.277-9.9-0.998-16.154-2.068c-8.617-1.475-14.302-3.15-16.003-4.736C2.108,360.785,1.749,360.244,1.749,357.585"/>
	<path fill="#010101" d="M52.693,616.58c1.168-2.297,2.717-5.105,3.822-6.586c0.512,0.945,1.302,2.359,2.33,4.016
		C57.214,614.816,54.578,616.025,52.693,616.58"/>
	<path fill="#B5D9D9" d="M74.515,108.034c-3.998-1.517-9.259-4.765-11.624-11.642c-2.07-6.02-1.873-11.541,0.588-16.411
		c2.003-3.948,5.202-6.887,8.338-8.826c-3.878,1.744-8.467,5.164-11.056,10.277c-2.457,4.865-2.657,10.388-0.598,16.408
		c2.371,6.879,7.634,10.13,11.636,11.645c4.781,1.807,10.352,2.117,14.899,0.83c2.064-0.586,3.991-1.451,5.753-2.553
		c-0.974,0.434-1.986,0.8-3.032,1.095C84.87,110.151,79.294,109.838,74.515,108.034"/>
	<path fill="#B5D9D9" d="M113.522,70.291c-5.696,1.831-9.988,5.687-12.133,9.003c0.271,0.506,0.53,1.022,0.769,1.553
		C104.346,77.839,106.872,74.051,113.522,70.291"/>
	<path fill="#B5D9D9" d="M101.944,99.066c2.179,1.104,8.136,0.401,11.848-0.496c0.384-0.093,1.058-0.244,1.937-0.411
		c-8.165,0.833-11.664-0.293-12.863-1.378C102.596,97.553,102.29,98.317,101.944,99.066"/>
</g>
</svg>
