<?xml version="1.0" encoding="UTF-8"?>
<!DOCTYPE svg PUBLIC "-//W3C//DTD SVG 1.1//EN" "http://www.w3.org/Graphics/SVG/1.1/DTD/svg11.dtd">
<!-- Creator: CorelDRAW X6 -->
<svg xmlns="http://www.w3.org/2000/svg" xml:space="preserve" width="169px" height="191px" version="1.1" shape-rendering="geometricPrecision" text-rendering="geometricPrecision" image-rendering="optimizeQuality" fill-rule="evenodd" clip-rule="evenodd"
viewBox="0 0 169 191"
 xmlns:xlink="http://www.w3.org/1999/xlink">
 <g id="Слой_x0020_1">
  <metadata id="CorelCorpID_0Corel-Layer"/>
  <path fill="#F4A701" stroke="#E3811E" stroke-width="0.755905" d="M47 52c-1,0 -3,-1 -5,-2 -1,-1 -3,-2 -4,-3 -1,-1 -1,-2 -1,-3 1,-1 1,-2 2,-3 1,0 2,-2 4,-3 2,-1 4,-3 7,-4 2,-1 4,-2 6,-3 2,-1 5,-2 7,-3 3,-1 5,-2 7,-2 3,-1 5,-2 7,-2 2,0 4,-1 6,-1 2,0 5,0 7,-1 2,0 4,0 6,0 3,0 6,0 9,1 2,0 5,0 8,0 3,1 6,2 9,2 2,1 4,2 6,3 2,0 3,1 4,2 1,1 1,2 1,3 0,1 0,2 -1,3 0,0 -1,1 -2,1 0,1 -1,2 -2,2 -1,1 -2,1 -2,1 -1,0 -2,1 -14,3 -12,2 -37,6 -50,7 -12,2 -14,2 -15,2z"/>
  <ellipse fill="#E66311" stroke="#A42B0C" stroke-width="0.755905" transform="matrix(3.36558 1.41119 -1.83114 2.59373 113.536 38.9158)" rx="2" ry="3"/>
  <ellipse fill="#EB690B" stroke="#A53318" stroke-width="0.755905" cx="92" cy="90" rx="62" ry="58"/>
  <ellipse fill="#FFFCFF" stroke="#AC3223" stroke-width="0.288" transform="matrix(1.85306 -1.39218 8.24992 13.5527 125.846 65.4177)" rx="5" ry="1"/>
  <ellipse fill="#EB690B" stroke="#B1331D" stroke-width="1.99975" cx="135" cy="82" rx="15" ry="14"/>
  <path fill="#A73920" stroke="#6B342D" stroke-width="0.755905" d="M95 90c2,0 5,2 7,3 2,1 3,2 3,2 1,0 1,1 1,1 1,0 3,0 5,0 2,0 5,0 7,0 2,0 2,1 2,1 0,0 0,0 -1,0 0,0 -1,0 -1,0 -1,1 -1,1 -2,1 0,0 -1,0 -1,0 -1,0 -2,1 -3,1 -1,1 -3,2 -4,2 -1,1 -1,1 -1,2 0,1 0,2 0,3 0,1 0,1 -1,1 -1,0 -1,0 -2,-1 -1,0 -2,-1 -3,-1 -1,-1 -2,-2 -3,-3 -1,-1 -1,-2 -2,-3 -1,-1 -1,-2 -2,-3 0,-1 -1,-2 -1,-3 0,-1 0,-2 0,-3 0,-1 1,-1 2,0z"/>
  <path fill="#E31E24" stroke="#E31E24" stroke-width="0.755905" d="M104 105c-1,-1 -2,-2 -3,-2 -1,-1 -1,-2 -2,-2 0,-1 -1,-2 -1,-3 -1,-1 -1,-1 -1,-1 0,-1 0,-1 1,-1 0,0 1,1 1,1 1,0 1,1 2,1 0,1 1,1 2,2 0,0 1,0 1,1 0,0 1,1 1,1 1,0 1,1 1,1 0,0 0,1 0,1 0,0 0,1 -1,1 0,0 0,0 -1,0z"/>
  <path fill="#EB690B" stroke="#A62F27" stroke-width="0.755905" d="M34 68c-1,0 -2,1 -4,1 -1,1 -3,2 -4,3 -2,0 -4,2 -5,3 -1,1 -3,2 -4,4 -1,1 -1,2 -2,3 -1,1 -2,2 -2,3 -1,2 -1,3 -2,5 0,3 0,6 0,9 1,2 1,3 2,5 1,1 3,3 4,4 1,1 3,2 4,3 1,1 1,2 1,3 1,2 1,3 1,4 1,2 1,3 2,4 1,1 2,1 4,2 1,0 3,0 4,0 2,0 3,-1 4,-1 1,-1 3,-2 4,-3 1,-1 2,-2 2,-2 1,-1 1,-2 2,-4 0,-1 0,-5 0,-7 0,-2 -1,-3 -1,-4 -1,-1 -2,-3 -3,-5 -1,-2 -3,-4 -4,-6 -1,-1 -1,-2 -1,-4 0,-1 0,-2 0,-3 1,-1 1,-3 2,-4 1,-1 1,-2 2,-3 0,-2 0,-4 0,-5 0,-2 -1,-3 -1,-3 -1,-1 -1,-2 -2,-2 -1,0 -2,0 -3,0z"/>
  <ellipse fill="white" stroke="#AE2E2B" stroke-width="0.288" transform="matrix(6.15166 -2.12123 0.846555 2.39162 99.4653 61.2571)" rx="2" ry="7"/>
  <ellipse fill="#2B2A29" stroke="#2B2A29" stroke-width="0.755905" cx="99" cy="63" rx="4" ry="6"/>
  <ellipse fill="white" stroke="#FEFEFE" stroke-width="0.755905" cx="101" cy="61" rx="2" ry="3"/>
  <ellipse fill="#2B2A29" stroke="#2B2A29" stroke-width="0.755905" cx="119" cy="62" rx="4" ry="5"/>
  <ellipse fill="white" stroke="#FAFFF9" stroke-width="0.755905" cx="120" cy="61" rx="2" ry="3"/>
  <path fill="#EB690B" stroke="#A62F27" stroke-width="0.755905" d="M154 102c0,1 0,3 0,5 0,1 -1,3 -1,5 0,1 -1,2 -1,3 -1,2 -2,4 -3,5 -1,2 -2,3 -3,5 -2,1 -4,3 -5,4 -2,1 -3,2 -5,3 -1,1 -2,1 -4,2 -1,0 -3,0 -5,0 -1,-1 -4,-1 -6,-1 -1,-1 -2,-1 -4,-2 -1,0 -2,-1 -3,-2 -1,-1 -2,-2 -3,-3 -1,-1 -1,-2 -2,-4 0,-1 0,-3 -1,-4 0,-1 0,-3 1,-4 0,-2 0,-3 1,-4 0,-2 1,-3 2,-4 1,-1 2,-1 4,-2 1,0 2,-1 3,-1 1,0 2,0 3,0 1,1 3,1 4,2 1,1 1,1 2,2 1,1 1,2 2,3 0,0 1,1 2,1 0,0 1,1 2,0 1,-1 3,-2 4,-4 1,-1 2,-3 3,-4 0,-1 1,-2 2,-3 1,-1 2,-2 3,-2 1,0 2,-1 3,-1 2,1 3,1 3,2 1,1 1,2 2,3z"/>
  <path fill="none" stroke="#A82D26" stroke-width="0.755905" d="M113 106c0,1 1,2 1,2 0,1 1,2 1,2 1,1 2,2 2,3 1,0 2,1 3,2"/>
  <path fill="none" stroke="#A82D26" stroke-width="0.755905" d="M115 122c-1,-1 -1,-1 -2,-2 0,-1 -1,-2 -2,-3 -1,-1 -2,-2 -2,-3"/>
  <path fill="none" stroke="#A73221" stroke-width="0.755905" d="M28 116c-2,-2 -5,-4 -8,-6"/>
  <path fill="#EB690B" stroke="#A53C1E" stroke-width="0.755905" d="M77 146c-1,0 -2,0 -3,0 -1,0 -1,1 -2,2 -1,1 -1,2 -2,3 -1,1 -1,2 -1,3 -1,1 -1,2 -2,3 0,1 0,2 -1,3 -1,0 -2,1 -2,1 -1,1 -2,2 -3,3 0,1 -1,3 -1,4 0,1 0,3 0,4 0,1 0,2 1,3 1,1 2,2 3,2 1,1 2,1 4,2 1,0 4,0 6,0 2,1 3,0 5,0 2,0 3,0 4,-1 2,0 3,0 4,-1 1,0 2,-1 2,-1 1,-1 1,-2 1,-3 1,-1 1,-2 0,-4 0,-1 0,-2 0,-3 -1,-2 -1,-3 -1,-4 -1,-2 -2,-3 -2,-4 -1,-2 -1,-3 -1,-4 -1,-1 -1,-1 -2,-3 0,-1 0,-2 -1,-3 -1,-1 -2,-1 -3,-1 -1,0 -2,0 -3,-1z"/>
  <ellipse fill="#6C3926" stroke="#6C3926" stroke-width="0.755905" cx="116" cy="79" rx="14" ry="10"/>
  <circle fill="#EB690B" stroke="#9F3528" stroke-width="0.755905" cx="75" cy="36" r="7"/>
  <path fill="none" stroke="#EB690B" stroke-width="2.99981" d="M132 96c1,0 3,0 5,0 1,0 3,-1 4,-1 2,-1 3,-2 4,-3 1,0 2,-1 2,-2 1,-1 1,-2 2,-3 0,-1 0,-1 0,-2 1,-1 1,-2 1,-3 0,-1 -1,-2 -1,-3 0,-1 0,-2 -1,-3 0,0 0,-1 -1,-2 -1,-1 -1,-1 -2,-2 -1,-1 -1,-1 -2,-2 0,0 -1,0 -1,0"/>
  <path fill="none" stroke="#A53C1E" stroke-width="0.755905" d="M66 160c1,-1 2,-1 3,-1 1,0 2,0 3,0 1,0 2,0 3,0 1,0 3,0 3,0 1,0 2,0 2,0"/>
  <path fill="#EB690B" stroke="#A53C1E" stroke-width="0.755905" d="M88 148c1,0 2,0 4,0 1,0 3,0 5,0 2,0 3,0 4,0 1,1 1,1 1,2 1,1 1,1 1,2 0,1 1,1 1,2 0,0 1,1 1,1 1,1 2,2 3,2 1,0 1,1 2,1 1,0 2,1 3,1 0,0 1,1 2,1 0,1 1,2 2,2 0,1 1,1 1,3 0,1 0,3 0,4 -1,1 -1,2 -1,2 0,1 -1,1 -1,2 -1,0 -2,1 -2,1 -1,1 -2,1 -5,1 -3,0 -9,0 -12,0 -3,0 -4,0 -4,0 -1,0 -1,-1 -1,-2 -1,-1 -1,-2 -1,-3 0,-1 0,-2 0,-3 0,-1 -1,-1 -1,-2 -1,-1 -1,-2 -1,-3 -1,-1 -1,-2 -1,-3 0,-1 0,-2 0,-3 0,-1 0,-2 0,-2 0,-1 0,-2 0,-3 0,-1 -1,-1 -1,-2 0,0 0,-1 1,-1z"/>
  <rect fill="#EB690B" stroke="#E96709" stroke-width="0.755905" transform="matrix(2.31109 -1.03771 1.03771 2.31109 66.38 44.4426)" width="6.90633" height="3.03118"/>
  <path fill="#6C3928" stroke="#6C3928" stroke-width="0.755905" d="M114 50c0,-1 0,-2 0,-3 0,0 1,-1 1,-1 1,0 2,0 4,0 1,0 2,0 3,0 1,0 1,0 1,0 1,0 1,0 2,1 1,0 2,0 3,0 1,0 1,0 1,0 0,0 0,0 0,1 1,0 1,1 1,1 0,1 0,2 0,2 -1,1 -1,1 -1,1 0,0 -1,0 -1,0 -1,1 -1,1 -2,1 -1,0 -2,0 -3,0 -1,0 -2,0 -3,0 -1,0 -2,0 -3,0 0,-1 -1,-1 -1,-1 -1,0 -1,0 -2,0 0,-1 0,-1 0,-1 0,0 0,0 0,-1z"/>
  <path fill="#6C3928" stroke="#6C3928" stroke-width="0.755905" d="M88 38c0,-1 0,-1 0,-2 0,0 1,-1 1,-1 0,0 1,0 2,-1 0,0 1,0 2,0 0,0 2,0 3,0 1,0 2,0 3,0 1,0 1,0 2,0 1,0 2,0 3,0 0,0 1,0 2,0 0,0 1,1 1,1 0,1 0,1 0,2 0,0 0,0 0,1 -1,0 -1,1 -1,1 -1,0 -1,0 -2,1 -1,0 -1,0 -2,0 -1,0 -1,0 -2,0 -1,0 -2,0 -3,0 -1,0 -2,0 -3,0 -1,0 -2,0 -3,0 0,0 -1,0 -1,0 -1,0 -1,0 -1,-1 0,0 -1,-1 -1,-1z"/>
  <path fill="#F6A800" stroke="#E3811E" stroke-width="0.755905" d="M61 28c-1,-1 0,-3 0,-4 0,-1 1,-2 1,-2 1,-1 1,-2 2,-2 1,-1 2,-2 4,-2 1,-1 2,-1 4,-2 1,0 3,-1 4,-1 2,0 3,0 4,-1 2,0 3,0 5,0 2,-1 4,-1 6,0 2,0 4,0 6,0 1,0 2,0 3,0 1,0 1,0 2,1 1,0 1,1 2,1 1,1 1,1 1,2 1,0 1,1 1,2 0,1 0,2 0,2 0,1 -1,1 -3,1 -2,-1 -5,-1 -8,-1 -2,0 -4,0 -6,0 -2,1 -4,1 -6,1 -2,0 -5,1 -6,1 -2,0 -4,1 -5,1 -2,1 -3,1 -5,2 -1,0 -2,1 -3,1 -2,0 -3,1 -3,0z"/>
  <path fill="none" stroke="#B1331D" stroke-width="1.99975" d="M83 89c2,0 3,0 5,0 1,0 3,-1 4,-1 1,0 2,-1 3,-1 1,0 2,-1 3,-2 0,0 1,-1 2,-1 1,-1 1,-2 2,-3 0,-1 0,-3 0,-4 0,-1 -1,-2 -1,-3 0,-1 -1,-2 -1,-2 -1,-1 -1,-2 -2,-3 -1,-1 -1,-2 -2,-3 -1,0 -2,-1 -3,-2 -1,-1 -3,-2 -4,-3 -1,0 -2,-1 -3,-1 -1,-1 -2,-1 -3,-2"/>
  <path fill="#EB690B" stroke="#B1331D" stroke-width="0.999685" d="M91 74c0,-1 -1,-2 -2,-3 -1,-1 -2,-3 -2,-4 -1,-1 -1,-3 -2,-4 0,-2 0,-3 0,-3 0,-1 1,0 3,1 1,0 2,1 3,2 1,0 1,1 2,1 1,0 1,1 2,1 0,1 1,2 2,3 1,1 1,1 2,2 0,1 1,1 1,2 0,0 0,0 1,1 0,1 0,2 0,2 1,1 1,2 0,2 0,1 0,1 -1,1 -1,1 -2,1 -2,1 -1,-1 -1,-1 -2,-2 -1,0 -2,-1 -3,-1 0,-1 -1,-1 -2,-2z"/>
  <path fill="none" stroke="#EB690B" stroke-width="1.99975" d="M85 60c0,1 0,3 0,4 0,1 1,1 1,2 1,1 1,3 2,4 0,1 1,2 2,2 1,1 1,2 2,3 1,1 2,1 3,2 0,0 1,1 2,1 1,0 2,0 2,0 1,1 1,1 2,1"/>
 </g>
</svg>
