<?xml version="1.0" encoding="UTF-8"?>
<!DOCTYPE svg PUBLIC "-//W3C//DTD SVG 1.1//EN" "http://www.w3.org/Graphics/SVG/1.1/DTD/svg11.dtd">
<!-- Creator: CorelDRAW X6 -->
<svg xmlns="http://www.w3.org/2000/svg" xml:space="preserve" width="150px" height="150px" version="1.1" shape-rendering="geometricPrecision" text-rendering="geometricPrecision" image-rendering="optimizeQuality" fill-rule="evenodd" clip-rule="evenodd"
viewBox="0 0 150 150"
 xmlns:xlink="http://www.w3.org/1999/xlink">
 <g id="Слой_x0020_1">
  <metadata id="CorelCorpID_0Corel-Layer"/>
  <path fill="#F4A701" stroke="#E3811E" stroke-width="0.755907" d="M44 38c-2,0 -3,-1 -4,-1 -2,-1 -3,-2 -4,-3 0,0 -1,-1 0,-2 0,-1 0,-2 1,-2 1,-1 1,-2 3,-3 2,-1 4,-3 6,-4 2,-1 3,-1 5,-2 2,-1 4,-2 6,-3 2,0 4,-1 6,-2 2,0 4,-1 6,-1 2,0 3,0 5,-1 2,0 4,0 5,0 2,-1 4,-1 6,-1 2,1 4,1 7,1 2,0 4,0 7,1 2,0 5,0 7,1 2,1 4,1 5,2 2,1 3,1 4,2 0,1 1,2 1,3 0,0 -1,1 -1,2 -1,0 -1,1 -2,1 0,1 -1,1 -1,2 -1,0 -2,0 -3,1 0,0 -1,0 -11,2 -10,1 -31,5 -41,6 -11,2 -12,2 -13,1z"/>
  <ellipse fill="#E66311" stroke="#A42B0C" stroke-width="0.755907" transform="matrix(2.81593 1.18072 -1.53208 2.17014 99.2563 27.4768)" rx="2" ry="3"/>
  <ellipse fill="#EB690B" stroke="#A53318" stroke-width="0.755907" cx="81" cy="70" rx="52" ry="48"/>
  <ellipse fill="#FFFCFF" stroke="#AC3223" stroke-width="0.288001" transform="matrix(1.55043 -1.16482 6.90258 11.3393 109.556 49.6506)" rx="5" ry="1"/>
  <ellipse fill="#EB690B" stroke="#B1331D" stroke-width="1.99975" cx="117" cy="64" rx="13" ry="12"/>
  <path fill="#A73920" stroke="#6B342D" stroke-width="0.755907" d="M84 70c2,1 4,2 5,3 2,1 3,1 3,1 1,1 1,1 1,1 1,0 2,0 4,0 2,0 5,0 6,0 2,1 2,1 2,1 0,0 -1,0 -1,0 0,0 -1,0 -1,0 -1,0 -1,1 -1,1 -1,0 -1,0 -2,0 0,0 -1,0 -2,1 -1,0 -2,1 -3,2 -1,0 -1,0 -1,1 0,1 0,2 0,2 0,1 -1,1 -1,1 -1,0 -1,0 -2,0 -1,0 -2,-1 -2,-1 -1,-1 -2,-2 -3,-3 0,0 -1,-1 -1,-2 -1,-1 -2,-2 -2,-3 0,-1 -1,-1 -1,-2 0,-1 0,-2 0,-3 0,-1 1,-1 2,0z"/>
  <path fill="#E31E24" stroke="#E31E24" stroke-width="0.755907" d="M91 83c0,-1 -1,-2 -2,-2 -1,-1 -1,-1 -2,-2 0,-1 -1,-1 -1,-2 -1,-1 -1,-1 -1,-1 0,-1 1,-1 1,0 0,0 1,0 1,0 1,0 1,1 2,1 0,1 1,1 1,1 1,1 1,1 1,1 1,1 1,1 1,1 1,1 1,1 1,1 0,0 0,1 0,1 0,0 0,1 -1,1 0,0 0,0 -1,0z"/>
  <path fill="#EB690B" stroke="#A62F27" stroke-width="0.755907" d="M33 52c-1,0 -2,0 -3,1 -2,0 -3,1 -4,2 -2,1 -3,1 -4,2 -1,2 -2,3 -3,4 -1,1 -2,1 -2,2 -1,1 -1,2 -2,3 -1,1 -1,2 -1,4 0,2 -1,5 0,7 0,2 1,4 1,5 1,1 2,2 4,3 1,1 2,2 3,3 0,0 1,1 1,3 0,1 0,2 1,3 0,1 1,2 1,3 1,1 2,1 3,1 1,0 3,0 4,0 1,0 2,0 3,0 1,-1 3,-2 4,-2 1,-1 1,-2 1,-3 1,0 1,-1 2,-2 0,-2 0,-4 0,-6 0,-2 -1,-3 -1,-4 -1,-1 -1,-2 -2,-4 -1,-2 -3,-3 -3,-5 -1,-1 -2,-2 -2,-3 0,-1 0,-2 1,-3 0,-1 0,-2 1,-3 1,-1 1,-2 1,-3 1,-1 1,-3 1,-4 -1,-1 -1,-2 -1,-3 -1,0 -1,-1 -2,-1 -1,0 -1,0 -2,0z"/>
  <ellipse fill="white" stroke="#AE2E2B" stroke-width="0.288001" transform="matrix(5.147 -1.7748 0.708299 2.00103 87.4837 46.1695)" rx="2" ry="7"/>
  <ellipse fill="#2B2A29" stroke="#2B2A29" stroke-width="0.755907" cx="87" cy="48" rx="3" ry="5"/>
  <circle fill="white" stroke="#FEFEFE" stroke-width="0.755907" cx="89" cy="46" r="2"/>
  <ellipse fill="#2B2A29" stroke="#2B2A29" stroke-width="0.755907" cx="104" cy="47" rx="3" ry="4"/>
  <ellipse fill="white" stroke="#FAFFF9" stroke-width="0.755907" cx="105" cy="46" rx="1" ry="2"/>
  <path fill="#EB690B" stroke="#A62F27" stroke-width="0.755907" d="M133 80c0,1 0,3 0,4 0,2 0,3 -1,4 0,1 0,2 -1,3 0,1 -1,3 -2,5 -1,1 -2,2 -3,3 -1,2 -3,3 -4,4 -1,1 -3,2 -4,2 -1,1 -2,1 -3,2 -1,0 -3,0 -4,0 -2,0 -4,-1 -5,-1 -2,0 -2,-1 -3,-1 -1,-1 -3,-1 -3,-2 -1,-1 -2,-2 -3,-3 0,-1 -1,-2 -1,-3 -1,-1 -1,-2 -1,-3 0,-1 0,-3 0,-4 0,-1 1,-2 1,-3 1,-1 1,-2 2,-3 1,-1 2,-2 3,-2 1,0 2,-1 3,-1 1,0 2,0 3,0 1,1 2,1 2,2 1,0 2,1 2,2 1,0 1,1 2,2 0,0 1,1 1,1 1,0 2,0 3,0 1,-1 2,-2 2,-3 1,-2 2,-3 3,-4 1,-1 1,-2 2,-2 0,-1 1,-2 2,-2 1,-1 2,-1 3,-1 1,1 2,1 3,2 0,0 1,1 1,2z"/>
  <path fill="none" stroke="#A82D26" stroke-width="0.755907" d="M99 83c0,1 0,2 1,3 0,0 0,1 1,1 0,1 1,2 1,2 1,1 2,1 3,2"/>
  <path fill="none" stroke="#A82D26" stroke-width="0.755907" d="M101 97c-1,-1 -1,-1 -2,-2 -1,0 -1,-1 -2,-2 -1,-1 -1,-2 -2,-2"/>
  <path fill="none" stroke="#A73221" stroke-width="0.755907" d="M28 92c-2,-2 -5,-3 -7,-5"/>
  <path fill="#EB690B" stroke="#A53C1E" stroke-width="0.755907" d="M68 117c0,0 -1,0 -2,0 -1,0 -1,1 -1,2 -1,1 -2,1 -2,2 -1,1 -1,2 -1,2 -1,1 -1,2 -1,3 -1,1 -1,2 -2,2 0,1 -1,1 -1,2 -1,0 -2,1 -3,2 0,1 0,2 -1,3 0,1 0,3 0,4 0,1 1,2 1,3 1,0 2,1 3,1 1,1 1,1 3,2 1,0 3,0 5,0 2,0 3,0 4,0 2,0 3,0 4,-1 1,0 2,0 3,-1 1,0 1,-1 2,-1 1,-1 1,-1 1,-2 0,-1 0,-2 0,-3 0,-1 0,-3 -1,-4 0,-1 0,-2 -1,-3 0,-1 -1,-2 -1,-3 0,-1 -1,-2 -1,-3 0,-1 -1,-1 -1,-2 0,-1 -1,-3 -1,-3 -1,-1 -2,-1 -3,-1 -1,0 -2,0 -3,-1z"/>
  <ellipse fill="#6C3926" stroke="#6C3926" stroke-width="0.755907" cx="101" cy="61" rx="12" ry="8"/>
  <ellipse fill="#EB690B" stroke="#9F3528" stroke-width="0.755907" cx="67" cy="25" rx="5" ry="6"/>
  <path fill="none" stroke="#EB690B" stroke-width="2.99982" d="M115 75c1,0 2,0 4,0 1,0 2,0 4,-1 1,0 2,-1 3,-2 0,0 1,-1 1,-2 1,-1 1,-1 2,-2 0,-1 0,-1 0,-2 0,-1 1,-2 0,-2 0,-1 0,-2 0,-3 0,-1 0,-2 -1,-2 0,-1 0,-1 -1,-2 0,-1 -1,-1 -1,-2 -1,0 -2,-1 -2,-1 0,0 -1,-1 -1,-1"/>
  <path fill="none" stroke="#A53C1E" stroke-width="0.755907" d="M59 128c1,0 2,0 3,0 1,0 1,0 2,0 1,0 2,0 3,0 1,0 2,0 3,0 1,0 1,0 1,0"/>
  <path fill="#EB690B" stroke="#A53C1E" stroke-width="0.755907" d="M78 119c1,0 2,0 3,0 1,0 3,0 4,0 2,0 3,0 4,0 1,0 1,1 1,1 0,1 0,1 0,2 1,1 1,1 1,2 1,0 1,0 1,1 1,0 2,1 2,1 1,1 2,1 2,1 1,0 2,1 3,1 0,0 1,1 1,1 1,1 1,1 2,2 0,0 1,1 1,2 0,1 0,3 0,4 0,1 -1,1 -1,1 0,1 -1,1 -1,2 0,0 -1,0 -2,1 0,0 -1,0 -3,0 -3,1 -8,1 -11,1 -2,0 -3,-1 -3,-1 0,0 -1,0 -1,-1 0,-1 0,-2 0,-3 -1,-1 -1,-2 -1,-2 0,-1 0,-1 -1,-2 0,-1 0,-2 0,-2 -1,-1 -1,-2 -1,-3 0,-1 0,-2 0,-3 -1,0 0,-1 0,-2 0,0 0,-1 0,-2 0,0 -1,-1 -1,-1 0,-1 0,-1 1,-1z"/>
  <rect fill="#EB690B" stroke="#E96709" stroke-width="0.755907" transform="matrix(1.93366 -0.868238 0.868238 1.93366 59.8016 32.101)" width="6.90635" height="3.03119"/>
  <path fill="#6C3928" stroke="#6C3928" stroke-width="0.755907" d="M99 37c0,-1 1,-2 1,-2 0,-1 0,-1 1,-1 0,0 2,0 3,0 1,0 1,0 2,0 1,0 1,0 2,0 0,0 0,0 1,0 1,0 2,0 2,0 1,0 1,0 1,0 1,0 1,1 1,1 0,0 0,1 0,1 0,1 0,1 0,2 0,0 -1,0 -1,0 0,1 0,1 -1,1 0,0 -1,0 -1,0 -1,0 -2,0 -3,0 -1,0 -2,0 -3,0 0,0 -1,0 -2,0 0,0 0,0 -1,-1 0,0 -1,0 -1,0 0,0 0,0 -1,0 0,0 0,-1 0,-1z"/>
  <path fill="#6C3928" stroke="#6C3928" stroke-width="0.755907" d="M78 27c0,-1 0,-1 0,-2 0,0 0,-1 1,-1 0,0 1,0 1,0 0,0 1,-1 2,-1 0,0 1,0 2,0 1,0 2,0 3,0 1,0 1,0 2,0 1,0 1,0 2,0 1,0 1,0 2,1 0,0 0,0 1,0 0,1 0,1 0,1 0,1 0,1 0,2 -1,0 -1,0 -1,0 -1,1 -1,1 -2,1 0,0 -1,0 -1,0 -1,1 -2,1 -2,1 -1,0 -2,0 -3,0 0,0 -1,0 -2,0 -1,0 -2,0 -2,0 -1,0 -1,-1 -2,-1 0,0 0,0 0,0 -1,-1 -1,-1 -1,-1z"/>
  <path fill="#F6A800" stroke="#E3811E" stroke-width="0.755907" d="M55 18c0,0 0,-2 0,-3 0,-1 1,-1 1,-2 1,0 1,-1 2,-2 1,0 2,-1 3,-1 1,-1 2,-1 3,-1 2,-1 3,-1 4,-1 1,-1 2,-1 3,-1 2,0 3,-1 5,-1 1,0 3,0 4,0 2,0 4,0 5,0 2,0 2,0 3,1 1,0 1,0 2,0 0,1 1,1 1,1 1,1 1,1 1,2 1,0 1,1 1,1 0,1 0,2 0,2 0,1 -1,1 -2,1 -2,0 -5,0 -7,0 -2,0 -3,0 -5,0 -2,0 -3,0 -5,0 -2,1 -4,1 -6,1 -1,0 -3,1 -4,1 -1,0 -2,1 -3,1 -1,1 -3,1 -4,1 -1,1 -2,1 -2,0z"/>
  <path fill="none" stroke="#B1331D" stroke-width="1.99975" d="M74 69c1,0 2,0 4,0 1,0 2,0 3,0 1,-1 2,-1 3,-1 1,-1 1,-1 2,-2 1,0 1,-1 2,-1 0,-1 1,-1 1,-2 1,-1 0,-3 0,-4 0,-1 0,-1 0,-2 0,-1 -1,-1 -1,-2 -1,-1 -1,-2 -2,-2 0,-1 -1,-2 -2,-2 0,-1 -1,-2 -2,-2 -1,-1 -2,-2 -3,-3 -1,0 -2,-1 -3,-1 -1,-1 -2,-1 -2,-1"/>
  <path fill="#EB690B" stroke="#B1331D" stroke-width="0.999688" d="M81 57c-1,-1 -2,-2 -2,-3 -1,-1 -2,-2 -2,-3 -1,-1 -1,-2 -1,-4 -1,-1 -1,-2 -1,-2 1,0 2,0 3,1 0,0 1,1 2,1 1,1 2,1 2,2 1,0 1,0 2,1 0,0 1,1 1,2 1,0 2,1 2,2 0,0 1,0 1,1 0,0 0,1 0,1 1,1 1,1 1,2 0,1 0,1 0,1 0,1 -1,1 -1,1 -1,1 -1,1 -2,1 0,0 -1,-1 -2,-1 0,-1 -1,-1 -2,-2 0,0 -1,-1 -1,-1z"/>
  <path fill="none" stroke="#EB690B" stroke-width="1.99975" d="M75 45c0,1 0,2 1,3 0,1 0,2 0,2 1,1 1,2 2,3 0,1 1,2 2,3 0,0 1,1 1,2 1,0 2,1 2,1 1,1 2,1 2,1 1,0 2,0 2,1 1,0 1,0 2,0"/>
 </g>
</svg>
