<?xml version="1.0" encoding="UTF-8"?>
<!DOCTYPE svg PUBLIC "-//W3C//DTD SVG 1.1//EN" "http://www.w3.org/Graphics/SVG/1.1/DTD/svg11.dtd">
<!-- Creator: CorelDRAW X6 -->
<svg xmlns="http://www.w3.org/2000/svg" xml:space="preserve" width="169px" height="191px" version="1.1" shape-rendering="geometricPrecision" text-rendering="geometricPrecision" image-rendering="optimizeQuality" fill-rule="evenodd" clip-rule="evenodd"
viewBox="0 0 169 191"
 xmlns:xlink="http://www.w3.org/1999/xlink">
 <g id="Слой_x0020_1">
  <metadata id="CorelCorpID_0Corel-Layer"/>
  <path fill="#F4A701" stroke="#E3811E" stroke-width="0.755905" d="M51 75c-1,0 -3,-1 -4,-2 -2,0 -3,-1 -4,-2 -1,-1 -1,-2 -1,-3 1,0 1,-1 2,-2 0,-1 1,-2 3,-3 2,-1 4,-3 6,-4 2,-1 4,-1 6,-2 2,-1 4,-2 6,-3 2,0 4,-1 6,-2 2,-1 4,-1 6,-1 2,-1 3,-1 5,-1 2,0 4,0 6,-1 2,0 3,0 5,0 3,0 5,0 8,0 2,1 4,1 7,1 2,1 5,1 8,2 2,0 4,1 5,2 2,1 3,1 3,2 1,1 1,2 1,3 0,0 0,1 0,2 -1,0 -1,1 -2,1 0,1 -1,1 -2,2 0,0 -1,1 -2,1 -1,0 -1,0 -12,2 -11,2 -32,5 -43,7 -11,1 -12,1 -13,1z"/>
  <ellipse fill="#E66311" stroke="#A42B0C" stroke-width="0.755905" transform="matrix(2.92265 1.22547 -1.59015 2.25238 108.499 63.7119)" rx="2" ry="3"/>
  <ellipse fill="#EB690B" stroke="#A53318" stroke-width="0.755905" cx="89" cy="108" rx="54" ry="50"/>
  <ellipse fill="#FFFCFF" stroke="#AC3223" stroke-width="0.288" transform="matrix(1.60919 -1.20896 7.16419 11.769 119.189 86.726)" rx="5" ry="1"/>
  <ellipse fill="#EB690B" stroke="#B1331D" stroke-width="1.99975" cx="127" cy="101" rx="13" ry="12"/>
  <path fill="#A73920" stroke="#6B342D" stroke-width="0.755905" d="M93 108c1,0 4,2 5,3 2,1 3,1 3,1 1,1 1,1 1,1 1,0 2,0 4,0 2,0 5,0 7,1 1,0 1,0 1,0 0,0 0,0 0,0 -1,0 -1,0 -2,1 0,0 -1,0 -1,0 0,0 -1,0 -1,0 -1,0 -2,1 -3,1 -1,1 -2,1 -3,2 -1,0 -1,1 -1,1 0,1 0,2 0,3 0,0 -1,0 -1,1 -1,0 -1,0 -2,-1 -1,0 -2,-1 -3,-1 0,-1 -1,-2 -2,-2 -1,-1 -1,-2 -2,-3 0,-1 -1,-2 -1,-3 -1,-1 -1,-1 -1,-2 0,-1 0,-2 0,-3 0,-1 0,-1 2,0z"/>
  <path fill="#E31E24" stroke="#E31E24" stroke-width="0.755905" d="M100 121c-1,-1 -2,-1 -2,-2 -1,0 -1,-1 -2,-2 -1,0 -1,-1 -1,-2 -1,0 -1,-1 -1,-1 0,0 0,-1 1,0 0,0 1,0 1,0 0,0 1,1 1,1 1,1 2,1 2,1 0,1 1,1 1,2 1,0 1,0 1,0 1,1 1,1 1,1 0,1 0,1 0,1 0,1 0,1 -1,1 0,0 0,0 -1,0z"/>
  <path fill="#EB690B" stroke="#A62F27" stroke-width="0.755905" d="M40 89c-1,0 -3,0 -4,1 -1,0 -2,1 -4,2 -1,1 -3,2 -4,3 -1,1 -2,2 -3,3 -1,1 -1,2 -2,3 -1,1 -1,2 -2,3 -1,1 -1,2 -1,4 -1,2 -1,5 0,8 0,2 1,3 1,4 1,1 3,3 4,4 1,1 2,1 3,2 1,1 1,2 1,3 1,1 1,2 1,4 0,1 1,2 2,3 1,0 2,1 3,1 1,0 3,0 4,0 1,0 2,0 3,-1 1,0 3,-1 4,-2 1,0 1,-1 1,-2 1,-1 1,-1 2,-3 0,-1 0,-4 0,-6 0,-2 -1,-2 -1,-4 -1,-1 -1,-2 -2,-4 -1,-1 -3,-3 -4,-5 -1,-1 -1,-2 -1,-3 0,-1 0,-2 0,-3 1,-1 1,-2 2,-3 0,-1 1,-2 1,-4 1,-1 1,-3 0,-4 0,-1 0,-2 0,-3 -1,0 -1,-1 -2,-1 -1,0 -1,0 -2,0z"/>
  <ellipse fill="white" stroke="#AE2E2B" stroke-width="0.288" transform="matrix(5.34207 -1.84207 0.735143 2.07687 96.2803 83.1129)" rx="2" ry="7"/>
  <ellipse fill="#2B2A29" stroke="#2B2A29" stroke-width="0.755905" cx="96" cy="85" rx="4" ry="5"/>
  <circle fill="white" stroke="#FEFEFE" stroke-width="0.755905" cx="98" cy="83" r="2"/>
  <ellipse fill="#2B2A29" stroke="#2B2A29" stroke-width="0.755905" cx="114" cy="84" rx="3" ry="4"/>
  <ellipse fill="white" stroke="#FAFFF9" stroke-width="0.755905" cx="115" cy="83" rx="1" ry="2"/>
  <path fill="#EB690B" stroke="#A62F27" stroke-width="0.755905" d="M143 118c0,1 1,3 0,5 0,1 0,3 0,4 0,1 -1,2 -1,3 -1,1 -2,3 -3,4 -1,2 -2,3 -3,4 -1,2 -2,3 -4,4 -1,1 -3,2 -4,3 -1,0 -2,1 -3,1 -1,0 -3,0 -4,0 -2,0 -4,0 -6,-1 -1,0 -2,0 -3,-1 -1,-1 -2,-1 -3,-2 -1,-1 -2,-2 -3,-3 0,-1 -1,-2 -1,-3 -1,-1 -1,-2 -1,-4 0,-1 0,-2 0,-3 0,-1 1,-3 1,-4 1,-1 1,-2 2,-3 1,-1 2,-1 3,-2 1,0 2,0 3,-1 1,0 2,0 3,1 1,0 2,0 3,1 1,1 1,1 2,2 1,1 1,1 2,2 0,1 1,1 1,1 1,1 2,1 3,0 0,0 2,-2 2,-3 1,-1 2,-3 3,-4 1,-1 1,-2 2,-2 1,-1 1,-2 2,-2 1,0 2,-1 4,0 1,0 2,0 2,1 1,1 1,1 1,2z"/>
  <path fill="none" stroke="#A82D26" stroke-width="0.755905" d="M108 122c0,0 1,1 1,2 0,1 1,1 1,2 1,0 1,1 2,2 1,0 2,1 2,2"/>
  <path fill="none" stroke="#A82D26" stroke-width="0.755905" d="M110 136c-1,-1 -1,-1 -2,-2 0,-1 -1,-1 -2,-2 0,-1 -1,-2 -2,-3"/>
  <path fill="none" stroke="#A73221" stroke-width="0.755905" d="M34 131c-2,-2 -4,-4 -7,-5"/>
  <path fill="#EB690B" stroke="#A53C1E" stroke-width="0.755905" d="M77 157c-1,0 -2,0 -3,0 -1,0 -1,1 -1,2 -1,0 -2,1 -2,2 -1,1 -1,1 -1,2 -1,1 -1,2 -2,3 0,1 0,2 -1,2 0,1 -1,1 -2,2 -1,1 -1,2 -2,3 -1,1 -1,2 -1,3 0,1 0,2 0,3 0,1 0,2 1,3 0,1 1,1 2,2 1,0 2,1 4,1 1,1 3,1 5,1 2,0 3,0 4,0 2,-1 3,-1 4,-1 1,0 2,-1 3,-1 1,0 2,-1 2,-2 1,0 1,-1 1,-2 1,-1 1,-2 0,-3 0,-1 0,-2 0,-3 -1,-1 -1,-3 -1,-4 -1,-1 -1,-2 -2,-3 0,-1 0,-2 -1,-3 0,-1 0,-2 -1,-3 0,-1 0,-2 -1,-3 -1,0 -2,0 -3,-1 -1,0 -2,0 -2,0z"/>
  <ellipse fill="#6C3926" stroke="#6C3926" stroke-width="0.755905" cx="110" cy="98" rx="12" ry="8"/>
  <circle fill="#EB690B" stroke="#9F3528" stroke-width="0.755905" cx="75" cy="61" r="6"/>
  <path fill="none" stroke="#EB690B" stroke-width="2.99981" d="M124 113c2,0 3,1 5,0 1,0 2,0 4,-1 1,0 2,-1 3,-2 1,0 1,-1 2,-2 0,-1 1,-2 1,-2 0,-1 1,-2 1,-2 0,-1 0,-2 0,-3 0,-1 0,-2 0,-3 -1,-1 -1,-1 -1,-2 -1,0 -1,-1 -1,-2 -1,0 -2,-1 -2,-2 -1,0 -1,-1 -2,-1 0,0 0,0 -1,0"/>
  <path fill="none" stroke="#A53C1E" stroke-width="0.755905" d="M67 168c1,0 2,0 3,0 1,0 1,0 2,0 1,0 2,0 3,0 1,0 2,0 3,0 1,0 1,0 1,0"/>
  <path fill="#EB690B" stroke="#A53C1E" stroke-width="0.755905" d="M86 159c1,0 2,-1 4,-1 1,0 3,0 4,0 2,0 3,1 4,1 1,0 1,1 1,1 0,1 0,1 0,2 1,0 1,1 1,1 1,1 1,1 1,2 1,0 2,1 3,1 0,1 1,1 2,1 0,0 1,1 2,1 0,0 1,1 2,1 0,1 1,1 1,2 1,0 1,1 1,2 0,1 0,3 0,4 0,1 0,1 -1,2 0,0 0,1 -1,1 0,1 -1,1 -1,1 -1,1 -2,1 -4,1 -3,0 -8,0 -11,0 -2,0 -3,0 -3,0 -1,0 -1,-1 -2,-2 0,0 0,-1 0,-2 0,-1 0,-2 0,-3 0,-1 -1,-1 -1,-2 0,0 -1,-1 -1,-2 0,-1 -1,-2 -1,-3 0,-1 0,-2 0,-3 0,0 0,-1 0,-2 0,0 0,-1 0,-2 0,-1 0,-1 0,-2 0,0 0,0 0,0z"/>
  <rect fill="#EB690B" stroke="#E96709" stroke-width="0.755905" transform="matrix(2.00694 -0.901143 0.901143 2.00694 67.5492 68.5113)" width="6.90633" height="3.03118"/>
  <path fill="#6C3928" stroke="#6C3928" stroke-width="0.755905" d="M109 73c0,0 0,-1 0,-2 0,-1 0,-1 1,-1 1,0 2,0 3,0 1,0 2,0 3,0 0,0 1,0 1,0 0,0 1,0 2,0 0,0 1,0 2,0 1,1 1,1 1,1 0,0 0,0 0,0 0,1 0,1 0,2 0,0 0,1 0,1 0,1 0,1 0,1 0,0 -1,0 -1,0 0,1 -1,1 -2,1 -1,0 -2,0 -2,0 -1,0 -2,0 -3,0 -1,0 -2,0 -2,0 -1,-1 -1,-1 -2,-1 0,0 -1,0 -1,0 0,0 0,-1 0,-1 0,0 0,0 0,-1z"/>
  <path fill="#6C3928" stroke="#6C3928" stroke-width="0.755905" d="M87 63c0,-1 0,-1 0,-2 0,0 0,0 0,-1 1,0 1,0 2,0 0,0 1,0 1,-1 1,0 2,0 3,0 1,0 2,0 3,0 0,0 1,0 2,0 1,0 1,0 2,0 1,0 1,0 2,1 0,0 0,0 1,0 0,1 0,1 0,2 0,0 0,0 0,1 -1,0 -1,0 -1,1 -1,0 -1,0 -2,0 0,0 -1,1 -2,1 0,0 -1,0 -1,0 -1,0 -2,0 -3,0 -1,0 -2,0 -2,0 -1,0 -2,0 -3,0 0,0 -1,0 -1,0 0,-1 -1,-1 -1,-1 0,0 0,-1 0,-1z"/>
  <path fill="#F6A800" stroke="#E3811E" stroke-width="0.755905" d="M63 54c-1,0 -1,-2 0,-3 0,-1 0,-2 1,-2 0,-1 1,-1 2,-2 0,-1 2,-1 3,-2 1,0 2,0 3,-1 2,0 3,-1 4,-1 1,0 2,0 4,-1 1,0 2,0 4,0 1,0 3,0 5,0 2,0 4,0 5,0 1,0 2,0 3,0 1,0 1,0 2,1 0,0 1,1 1,1 1,0 1,1 1,1 1,1 1,1 1,2 0,1 0,2 0,2 0,1 -1,1 -2,0 -2,0 -5,0 -7,0 -2,0 -4,0 -5,0 -2,1 -4,1 -6,1 -2,0 -4,1 -6,1 -1,0 -3,0 -4,1 -1,0 -2,1 -4,1 -1,0 -2,1 -3,1 -1,1 -2,1 -2,0z"/>
  <path fill="none" stroke="#B1331D" stroke-width="1.99975" d="M82 107c1,0 3,0 4,0 1,0 3,0 4,-1 1,0 2,0 2,-1 1,0 2,0 3,-1 0,0 1,-1 2,-2 0,0 1,0 1,-1 0,-1 0,-3 0,-4 0,-1 0,-2 0,-3 -1,0 -1,-1 -1,-2 -1,-1 -1,-1 -2,-2 0,-1 -1,-2 -2,-2 -1,-1 -1,-2 -2,-2 -1,-1 -3,-2 -4,-3 -1,0 -2,-1 -3,-1 0,-1 -1,-1 -2,-1"/>
  <path fill="#EB690B" stroke="#B1331D" stroke-width="0.999685" d="M89 94c0,-1 -1,-1 -2,-3 -1,-1 -1,-2 -2,-3 0,-1 -1,-2 -1,-4 0,-1 -1,-2 0,-2 0,0 1,0 2,1 1,0 2,1 3,1 1,1 1,1 2,2 0,0 1,0 1,1 1,0 1,1 2,2 1,0 1,1 2,2 0,0 0,1 1,1 0,0 0,1 0,1 0,1 1,2 1,2 0,1 0,1 0,2 0,0 -1,1 -1,1 -1,0 -2,0 -2,0 -1,0 -1,0 -2,-1 -1,0 -1,-1 -2,-1 -1,-1 -1,-1 -2,-2z"/>
  <path fill="none" stroke="#EB690B" stroke-width="1.99975" d="M84 82c0,1 0,2 0,3 0,1 0,2 1,2 0,1 1,3 1,3 1,1 1,2 2,3 1,1 1,1 2,2 1,1 1,1 2,2 1,0 1,0 2,1 1,0 2,0 2,0 1,0 1,0 2,0"/>
 </g>
</svg>
